<?xml version="1.0" encoding="UTF-8" standalone="no"?>
<svg
   viewBox="-67.912119 -67.912156 2561.3499 370.17412"
   version="1.1"
   id="svg5"
   sodipodi:docname="all white logo horiz.svg"
   width="2561.3499"
   height="370.17413"
   inkscape:version="1.3.2 (091e20e, 2023-11-25, custom)"
   xmlns:inkscape="http://www.inkscape.org/namespaces/inkscape"
   xmlns:sodipodi="http://sodipodi.sourceforge.net/DTD/sodipodi-0.dtd"
   xmlns="http://www.w3.org/2000/svg"
   xmlns:svg="http://www.w3.org/2000/svg">
  <defs
     id="defs5" />
  <sodipodi:namedview
     id="namedview5"
     pagecolor="#ffffff"
     bordercolor="#000000"
     borderopacity="0.25"
     inkscape:showpageshadow="2"
     inkscape:pageopacity="0.0"
     inkscape:pagecheckerboard="0"
     inkscape:deskcolor="#d1d1d1"
     showgrid="false"
     inkscape:zoom="0.17620387"
     inkscape:cx="1078.2964"
     inkscape:cy="-434.15618"
     inkscape:window-width="1360"
     inkscape:window-height="697"
     inkscape:window-x="-8"
     inkscape:window-y="-8"
     inkscape:window-maximized="1"
     inkscape:current-layer="svg5" />
  <svg
     version="1.1"
     id="Capa_2_1_"
     x="2.0878806"
     y="2.0878437"
     viewBox="2.5250015 2.5250015 994.94995 994.94995"
     xml:space="preserve"
     height="570.82434"
     width="570.82422"
     preserveAspectRatio="xMinYMin"
     enable-background="new 0 0 1000 1000"
     style="overflow:visible"
     transform="matrix(0.5737216,0,0,0.5737216,-1.1397027,508.51174)" />
  <g
     id="g5"
     transform="translate(26.859027,900)">
    <path
       d="m 269.92622,-690.30916 c -0.87356,-0.80078 -1.81993,-1.52875 -2.7299,-2.25672 -0.0364,0 -0.0364,-0.0364 -0.0728,-0.0364 -2.7299,-2.07471 -5.60539,-3.82185 -8.66288,-5.205 -0.0728,-0.0364 -0.14559,-0.0728 -0.21839,-0.1092 l -0.0364,0.0364 c -14.48666,-6.66095 -31.77601,-5.3506 -45.2435,3.89465 0,0 0,0 -0.0364,0 -0.0728,0.0364 -0.14559,0.10919 -0.21839,0.14559 l -12.59392,-12.59392 c 1.52874,-1.67434 2.87548,-3.42148 4.18584,-5.205 30.82963,-40.14769 30.82963,-96.49277 0,-136.64046 -1.31036,-1.78353 -2.69351,-3.53066 -4.18584,-5.20499 l 12.63032,-12.63033 c 7.8621,5.45979 16.99816,8.22609 26.1706,8.22609 0.0364,0 0.0364,0 0.0728,0 0.40038,0 0.76437,0 1.16475,0 0.1092,0 0.2548,0 0.36399,0 0.36398,0 0.76437,-0.0364 1.12835,-0.0364 0.1456,0 0.2548,0 0.40039,0 0.36398,-0.0364 0.69157,-0.0364 1.05556,-0.0728 0.1456,0 0.29119,-0.0364 0.47318,-0.0364 0.25479,-0.0364 0.50959,-0.0364 0.76437,-0.0728 0.25479,-0.0364 0.50959,-0.0364 0.76438,-0.0728 0.18199,-0.0364 0.32758,-0.0364 0.50958,-0.0728 0.32759,-0.0364 0.65518,-0.1092 1.01916,-0.1456 0.29119,-0.0364 0.58238,-0.10919 0.87357,-0.14558 0.21839,-0.0364 0.40038,-0.0728 0.61877,-0.1092 0.36399,-0.0728 0.69158,-0.1456 1.05556,-0.21839 0.14559,-0.0364 0.29119,-0.0728 0.43678,-0.1092 0.2912,-0.0728 0.54598,-0.1456 0.83717,-0.21839 0.2184,-0.0364 0.43679,-0.10919 0.65518,-0.1456 0.43678,-0.1092 0.83716,-0.2184 1.27395,-0.36398 0.0728,-0.0364 0.1456,-0.0364 0.21839,-0.0728 0.32759,-0.10919 0.65517,-0.21838 0.98276,-0.32758 0.1456,-0.0364 0.32759,-0.1092 0.50959,-0.1456 0.36398,-0.10919 0.69157,-0.25478 1.05556,-0.36398 0.14559,-0.0364 0.25478,-0.0728 0.40038,-0.1456 0.29119,-0.10919 0.54597,-0.21839 0.83717,-0.32759 0.69157,-0.25478 1.34674,-0.54597 2.00192,-0.87356 l 0.0364,0.0364 c 4.18584,-1.89274 8.1169,-4.44064 11.68396,-7.60732 0.58238,-0.58238 1.20115,-1.12836 1.81993,-1.78353 18.05372,-18.05372 18.05372,-47.35461 0,-65.37193 -18.05372,-18.01731 -47.35461,-18.05371 -65.37193,0 -0.61878,0.61878 -1.16476,1.23756 -1.78353,1.81994 -3.16669,3.56706 -5.71459,7.49812 -7.60731,11.68396 l 0.0364,0.0364 c -6.69735,14.59586 -5.3506,31.99439 4.07665,45.49827 l -12.81233,12.52113 c -1.67433,-1.52875 -3.42147,-2.87549 -5.205,-4.18584 -40.14768,-30.82963 -96.49275,-30.82963 -136.640434,0 -1.783532,1.31035 -3.530667,2.6935 -5.205003,4.18584 L 28.78531,-877.76203 c 5.496192,-7.86211 8.226089,-17.03456 8.262488,-26.207 v -0.0364 c 0,-1.52874 -0.0728,-3.02108 -0.218392,-4.54982 -0.473182,-5.02302 -1.819931,-10.00963 -3.967449,-14.70506 -1.856331,-4.22223 -4.404235,-8.15328 -7.570915,-11.72035 -0.291189,-0.29119 -0.582378,-0.58238 -0.837169,-0.87357 -0.291188,-0.32759 -0.618776,-0.61878 -0.909965,-0.94637 -1.346749,-1.34674 -2.766295,-2.5843 -4.22224,-3.71265 -18.1629144,-14.19546 -44.47912,-12.95792 -61.186089,3.74906 -16.05179,16.05179 -17.835327,40.98484 -5.350598,59.00216 0.109196,0.14559 0.218392,0.32758 0.327588,0.47318 0.181993,0.29119 0.400385,0.54597 0.618777,0.83717 1.31035,1.78353 2.766295,3.45786 4.404233,5.0594 0.473183,0.47318 0.946365,0.90997 1.383148,1.34675 0.145594,0.1456 0.291189,0.29119 0.436784,0.43678 0.655175,0.58239 1.346749,1.16476 2.038323,1.67434 2.547904,2.03832 5.241402,3.74907 8.116893,5.16861 0.50958,0.25479 1.05556,0.50959 1.56514,0.72798 3.749059,1.71072 7.680111,2.91188 11.683959,3.56706 0.982763,0.14559 2.001925,0.29119 3.021086,0.40039 1.492343,0.14558 3.021086,0.21838 4.5498282,0.21838 h 0.036399 c 9.17245328,0 18.3813058,-2.76629 26.2070098,-8.26249 l 12.593925,12.63033 c -1.528743,1.67433 -2.875492,3.42147 -4.185842,5.205 -30.8296359,40.14768 -30.8296359,96.49277 0,136.64045 1.31035,1.78353 2.693498,3.53067 4.185842,5.205 l -12.630245,12.63029 c -8.7720685,-6.11497 -19.1820758,-8.80848 -29.410089,-8.1533 -5.496193,0.364 -10.955987,1.71074 -16.051793,4.07664 l -0.0364,-0.0364 c -0.727972,0.32758 -1.419546,0.69157 -2.147519,1.05556 -2.11112,1.09196 -4.113044,2.32951 -6.042171,3.74906 -1.201155,0.87356 -2.365911,1.81993 -3.494268,2.80269 -0.582378,0.58238 -1.201155,1.12836 -1.819931,1.78354 -5.641787,5.64178 -9.500041,12.37553 -11.647561,19.54606 -0.109196,0.36398 -0.218391,0.72797 -0.291188,1.09196 -1.237553,4.65902 -1.783532,9.46364 -1.565141,14.23186 0.0364,0.47318 0.0364,0.98277 0.109196,1.45595 0.181992,2.47509 0.582378,4.9866 1.164756,7.38891 1.929127,7.9349 6.005773,15.46942 12.229938,21.69359 8.480879,8.48087 19.436865,12.9943 30.538446,13.50388 12.5211263,0.58238 25.260646,-3.93105 34.833483,-13.50388 0.0728,-0.0728 0.145596,-0.1456 0.218392,-0.2548 0.545979,-0.54598 1.019162,-1.09196 1.528743,-1.60153 3.057484,-3.45788 5.53259,-7.24334 7.425319,-11.24718 0.0728,-0.1456 0.145595,-0.29119 0.181994,-0.40039 l -0.0364,-0.0364 c 4.040247,-8.80847 5.132206,-18.63609 3.312274,-28.02694 -0.0364,-0.182 -0.0728,-0.40039 -0.109196,-0.61878 -0.145595,-0.69157 -0.291189,-1.38316 -0.473182,-2.03833 -1.346749,-5.205 -3.603464,-10.22801 -6.806543,-14.81424 l 12.666722,-12.63031 c 1.674337,1.52874 3.42147,2.87548 5.205003,4.18583 40.147684,30.82964 96.492757,30.82964 136.640437,0 1.78353,-1.31035 3.53067,-2.6935 5.205,-4.18583 l 12.63033,12.63031 c -0.21839,0.2912 -0.40039,0.58238 -0.61878,0.87357 -8.84487,13.3583 -10.00962,30.32005 -3.45787,44.58832 l -0.0364,0.0364 c 0.94637,2.11112 2.07472,4.11304 3.31227,6.07856 1.27396,1.96553 2.6935,3.82186 4.29505,5.6054 0.58237,0.58238 1.12835,1.20115 1.78353,1.81992 18.05371,18.05372 47.35461,18.05372 65.37192,0 18.01733,-18.05371 18.05372,-47.3546 0,-65.37192 -0.61877,-0.61878 -1.23754,-1.16476 -1.81992,-1.78353 z M 217.7306,-925.44428 c 11.79315,-11.79315 30.90242,-11.79315 42.69558,0 11.79316,11.79315 11.79316,30.90242 0,42.69558 -11.79316,11.79315 -30.90243,11.79315 -42.69558,0 -11.79316,-11.75676 -11.79316,-30.90243 0,-42.69558 z M 12.078363,-882.8215 c -11.7931543,11.79315 -30.902432,11.79315 -42.695587,0 -11.793154,-11.79316 -11.793154,-30.90243 0,-42.69557 11.793155,-11.79316 30.9024327,-11.79316 42.695587,0 11.793155,11.79314 11.793155,30.90241 0,42.69557 z m 0.473183,248.89381 c -11.79315516,11.79315 -30.902433,11.79315 -42.695587,0 -11.793155,-11.79316 -11.793155,-30.90244 0,-42.69559 11.793154,-11.79316 30.90243184,-11.79316 42.695587,0 11.793154,11.79315 11.793154,30.90243 0,42.69559 z m 164.230594,-219.52013 -35.16108,35.16107 c -15.97899,-11.13796 -37.34498,-11.13796 -53.323976,0 l -35.161071,-35.16107 c 35.561457,-30.06525 88.048267,-30.06525 123.646127,0 z m -40.51167,94.81844 c -11.79315,11.79315 -30.90243,11.79315 -42.695586,0 -11.793153,-11.79317 -11.793153,-30.90245 0,-42.6956 11.793156,-11.79315 30.902436,-11.79315 42.695586,0 11.79315,11.79315 11.79315,30.93883 0,42.6956 z m -94.818416,40.51167 c -30.065264,-35.59786 -30.065264,-88.08468 0,-123.64614 l 35.161069,35.16107 c -11.137975,15.97899 -11.137975,37.34498 0,53.32399 z m 11.647559,11.64756 35.161073,-35.16107 c 15.978994,11.13798 37.344984,11.13798 53.323984,0 l 35.16107,35.16107 c -35.56146,30.06526 -88.04827,30.06526 -123.646127,0 z m 135.330087,-11.64756 -35.16107,-35.16108 c 11.13798,-15.97901 11.13798,-37.345 0,-53.32399 l 35.16107,-35.16107 c 30.06527,35.56146 30.06527,88.04828 0,123.64614 z m 71.99648,83.64404 c -11.79316,11.79315 -30.90243,11.79315 -42.69558,0 -11.79316,-11.79316 -11.79316,-30.90243 0,-42.69559 11.79315,-11.79315 30.90242,-11.79315 42.69558,0 11.75675,11.75675 11.75675,30.90243 0,42.69559 z"
       style="overflow:visible;fill:#ffffff;fill-opacity:1;stroke-width:0.363986"
       id="path1" />
    <path
       d="m 280.70021,-706.87054 c 20.41964,-46.40825 20.41964,-99.76864 0,-146.17689 -4.44062,3.56706 -9.17245,6.51535 -14.19547,8.77207 17.39855,40.98485 17.39855,87.6479 0,128.63275 5.05942,2.25672 9.79124,5.20501 14.19547,8.77207 z"
       style="overflow:visible;fill:#ffffff;fill-opacity:1;stroke-width:0.363986"
       id="path2" />
    <path
       d="m 179.25725,-931.52285 c 2.25671,-5.0594 5.205,-9.79124 8.77206,-14.19546 -46.40825,-20.41964 -99.768624,-20.41964 -146.176871,0 3.567065,4.44063 6.515354,9.17245 8.772068,14.19546 40.984851,-17.39854 87.647893,-17.39854 128.632743,0 z"
       style="overflow:visible;fill:#ffffff;fill-opacity:1;stroke-width:0.363986"
       id="path3" />
    <path
       d="m -50.81846,-853.04743 c -20.419631,46.40825 -20.419631,99.76864 0,146.17689 4.440631,-3.56706 9.172454,-6.51535 14.195464,-8.77207 -17.398543,-40.98485 -17.398543,-87.6479 0,-128.63275 -5.05941,-2.25672 -9.791231,-5.20501 -14.195464,-8.77207 z"
       style="overflow:visible;fill:#ffffff;fill-opacity:1;stroke-width:0.363986"
       id="path4" />
    <path
       d="m 50.624507,-628.39511 c -2.256714,5.05942 -5.205003,9.79124 -8.772068,14.19547 46.408247,20.41963 99.768621,20.41963 146.176871,0 -3.56706,-4.44063 -6.51535,-9.17246 -8.77206,-14.19547 -40.98485,17.39855 -87.647892,17.39855 -128.632743,0 z"
       style="overflow:visible;fill:#ffffff;fill-opacity:1;stroke-width:0.363986"
       id="path5" />
    <text
       xml:space="preserve"
       style="font-style:normal;font-variant:normal;font-weight:500;font-stretch:normal;font-size:187.837px;font-family:Montserrat;-inkscape-font-specification:'Montserrat Medium';fill:#ffffff;stroke-width:3.69758"
       x="421.13547"
       y="-714.19"
       id="text5"><tspan
         sodipodi:role="line"
         id="tspan5"
         x="421.13547"
         y="-714.19"
         style="stroke-width:3.69758">THE TURING CENTER</tspan></text>
  </g>
</svg>
