<?xml version="1.0" encoding="UTF-8" standalone="no"?>
<!-- Uploaded to: SVG Repo, www.svgrepo.com, Generator: SVG Repo Mixer Tools -->

<svg
   width="572.26562"
   height="572.57812"
   viewBox="0 0 732.5 732.9"
   class="icon"
   version="1.1"
   id="svg6"
   sodipodi:docname="api-interface-svgrepo-com.svg"
   xmlns:inkscape="http://www.inkscape.org/namespaces/inkscape"
   xmlns:sodipodi="http://sodipodi.sourceforge.net/DTD/sodipodi-0.dtd"
   xmlns="http://www.w3.org/2000/svg"
   xmlns:svg="http://www.w3.org/2000/svg">
  <defs
     id="defs6" />
  <sodipodi:namedview
     id="namedview6"
     pagecolor="#ffffff"
     bordercolor="#000000"
     borderopacity="0.25"
     inkscape:showpageshadow="2"
     inkscape:pageopacity="0.0"
     inkscape:pagecheckerboard="0"
     inkscape:deskcolor="#d1d1d1" />
  <path
     d="m 416.9,346.80001 c 3.4,-1.3 6,-3.4 7.9,-6.2 1.9,-2.8 2.9,-6.1 2.9,-9.8 0,-4.6 -1.3,-8.4 -4,-11.3 -2.7,-3 -6.1,-4.8 -10.2,-5.6 -3,-0.6 -9.1,-0.9 -18.3,-0.9 h -12.3 v 35.7 h 13.9 c 10,0.1 16.7,-0.6 20.1,-1.9 z"
     fill="#FFFFFF"
     id="path3"
     style="fill:#6c6c6c;fill-opacity:0" />
  <path
     d="M 495.9,545.10001 H 200.1 c -8.3,0 -15.1,-6.8 -15.1,-15.1 v -295 c 0,-5.5 -4.5,-10 -10,-10 -5.5,0 -10,4.5 -10,10 v 295 c 0,19.4 15.7,35.1 35.1,35.1 h 295.8 c 5.5,0 10,-4.5 10,-10 0,-5.5 -4.4,-10 -10,-10 z"
     fill="#06F3FF"
     id="path4"
     style="fill:#ff7b9c;fill-opacity:1" />
  <path
     d="m 712.5,254.10001 c 11,0 20,-9 20,-20 0,-11 -9,-20 -20,-20 h -69.7 v -56.8 c 0,-38.6 -31.4,-70.000004 -70,-70.000004 H 545 v -67.3 C 545,9.0000061 536,6.1035156e-6 525,6.1035156e-6 514,6.1035156e-6 505,9.0000061 505,20.000006 v 67.3 h -46.5 v -67.3 C 458.5,9.0000061 449.5,6.1035156e-6 438.5,6.1035156e-6 c -11,0 -20,8.9999999964844 -20,19.9999998964844 v 67.3 H 372 v -67.3 C 372,9.0000061 363,6.1035156e-6 352,6.1035156e-6 341,6.1035156e-6 332,9.0000061 332,20.000006 v 67.3 h -46.5 v -67.3 C 285.5,9.0000061 276.5,6.1035156e-6 265.5,6.1035156e-6 c -11,0 -20,8.9999999964844 -20,19.9999998964844 v 67.3 h -85.8 c -38.6,0 -70,31.400004 -70,70.000004 v 56.8 H 20 c -11,0 -20,9 -20,20 0,11 9,20 20,20 h 69.7 v 46.5 H 20 c -11,0 -20,9 -20,20 0,11 9,20 20,20 h 69.7 v 46.5 H 20 c -11,0 -20,9 -20,20 0,11 9,20 20,20 h 69.7 v 46.5 H 20 c -11,0 -20,9 -20,20 0,11 9,20 20,20 h 69.7 v 56.8 c 0,38.6 31.4,70 70,70 h 30.8 v 72.5 c 0,11 9,20 20,20 11,0 20,-9 20,-20 v -72.5 H 277 v 72.5 c 0,11 9,20 20,20 11,0 20,-9 20,-20 v -72.5 h 46.5 v 72.5 c 0,11 9,20 20,20 11,0 20,-9 20,-20 v -72.5 H 450 v 72.5 c 0,11 9,20 20,20 11,0 20,-9 20,-20 v -72.5 h 82.8 c 38.6,0 70,-31.4 70,-70 v -56.8 h 69.7 c 11,0 20,-9 20,-20 0,-11 -9,-20 -20,-20 h -69.7 v -46.5 h 69.7 c 11,0 20,-9 20,-20 0,-11 -9,-20 -20,-20 h -69.7 v -46.5 h 69.7 c 11,0 20,-9 20,-20 0,-11 -9,-20 -20,-20 h -69.7 v -46.5 z m -109.7,316.2 c 0,16.5 -13.5,30 -30,30 H 159.7 c -16.5,0 -30,-13.5 -30,-30 v -413 c 0,-16.5 13.5,-30 30,-30 h 413.1 c 16.5,0 30,13.5 30,30 z"
     fill="#005BFF"
     id="path5"
     style="fill:#bf6900;fill-opacity:1" />
  <path
     d="m 255.1,389.00001 h 50.3 l 11,28.6 H 344 l -50.4,-125.8 h -26.9 l -49,125.8 h 27 z m 24.8,-67.9 17.3,46.7 h -34.3 z m 103,49.1 h 16.6 c 11.5,0 20.3,-0.6 26.4,-1.8 4.5,-1 8.9,-3 13.2,-6 4.3,-3 7.9,-7.1 10.7,-12.4 2.8,-5.3 4.2,-11.8 4.2,-19.5 0,-10 -2.4,-18.2 -7.3,-24.5 -4.9,-6.3 -10.9,-10.4 -18.1,-12.3 -4.7,-1.3 -14.8,-1.9 -30.2,-1.9 h -40.9 v 125.8 h 25.4 z m 0,-57.1 h 12.3 c 9.2,0 15.2,0.3 18.3,0.9 4.1,0.7 7.5,2.6 10.2,5.6 2.7,3 4,6.8 4,11.3 0,3.7 -1,7 -2.9,9.8 -1.9,2.8 -4.6,4.9 -7.9,6.2 -3.4,1.3 -10.1,2 -20.1,2 h -13.9 z m 91.1,-21.3 h 25.4 v 125.8 H 474 Z"
     fill="#005BFF"
     id="path6"
     style="fill:#bf6900;fill-opacity:1" />
</svg>
