<?xml version="1.0" encoding="UTF-8" standalone="no"?>
<!-- Uploaded to: SVG Repo, www.svgrepo.com, Generator: SVG Repo Mixer Tools -->

<svg
   width="668.75018"
   height="575.78125"
   viewBox="0 0 856.00023 737"
   class="icon"
   version="1.1"
   id="svg11"
   sodipodi:docname="mobile-app-svgrepo-com.svg"
   xmlns:inkscape="http://www.inkscape.org/namespaces/inkscape"
   xmlns:sodipodi="http://sodipodi.sourceforge.net/DTD/sodipodi-0.dtd"
   xmlns="http://www.w3.org/2000/svg"
   xmlns:svg="http://www.w3.org/2000/svg">
  <defs
     id="defs11" />
  <sodipodi:namedview
     id="namedview11"
     pagecolor="#ffffff"
     bordercolor="#000000"
     borderopacity="0.25"
     inkscape:showpageshadow="2"
     inkscape:pageopacity="0.0"
     inkscape:pagecheckerboard="0"
     inkscape:deskcolor="#d1d1d1" />
  <path
     d="m 349.7,677.8 c -14.2,0 -25.8,-11.6 -25.8,-25.8 0,-14.2 11.6,-25.8 25.8,-25.8 14.2,0 25.8,11.6 25.8,25.8 0.1,14.2 -11.6,25.8 -25.8,25.8 z"
     fill="#005BFF"
     id="path1"
     style="fill:#bf6900;fill-opacity:1" />
  <path
     d="m 517,597.7 c 0,5.1 -4.2,9.3 -9.3,9.3 h -316 c -5.1,0 -9.3,-4.2 -9.3,-9.3 V 121.4 c 0,-5.1 4.2,-9.3 9.3,-9.3 h 315.9 c 5.1,0 9.3,4.2 9.3,9.3 v 476.3 z"
     fill="#e6e6e6"
     id="path2" />
  <path
     d="m 720.5,418.8 c -40.5,0 -73.4,32.9 -73.4,73.4 0,40.5 32.9,73.4 73.4,73.4 40.5,0 73.4,-32.9 73.4,-73.4 0,-40.5 -32.9,-73.4 -73.4,-73.4 z m -53.4,73.4 c 0,-29.4 24,-53.4 53.4,-53.4 29.4,0 53.4,24 53.4,53.4 0,29.4 -24,53.4 -53.4,53.4 -29.5,0 -53.4,-24 -53.4,-53.4 z"
     fill="#005BFF"
     id="path4"
     style="fill:#bf6900;fill-opacity:1" />
  <path
     d="m 107.9,275.6 c -1.8,-5.2 -7.4,-8 -12.7,-6.3 l -18.7,6.3 C 68.4,267.4 57.2,262.3 44.7,262.3 20.1,262.3 0,282.3 0,307 c 0,24.7 20,44.7 44.7,44.7 24.7,0 44.7,-20 44.7,-44.7 0,-4.8 -0.8,-9.5 -2.2,-13.8 l 14.4,-4.8 c 5.2,-1.9 8,-7.5 6.3,-12.8 z m -63.1,56 c -13.6,0 -24.7,-11.1 -24.7,-24.7 0,-13.6 11.1,-24.7 24.7,-24.7 13.6,0 24.7,11.1 24.7,24.7 0,13.6 -11.1,24.7 -24.7,24.7 z m 201.1,-43.2 -3.5,-11 c 12.3,-8 20.5,-21.8 20.5,-37.5 0,-24.6 -20,-44.7 -44.7,-44.7 -24.7,0 -44.7,20 -44.7,44.7 0,24.7 20,44.7 44.7,44.7 1.8,0 3.6,-0.1 5.3,-0.3 l 3.2,10.2 c 1.3,4.3 5.3,7 9.5,7 1,0 2,-0.2 3,-0.5 5.5,-1.7 8.4,-7.4 6.7,-12.6 z m -18.5,-25.6 c -0.4,0.1 -0.8,0.3 -1.1,0.4 -2.5,0.9 -5.2,1.4 -8,1.4 -13.6,0 -24.7,-11.1 -24.7,-24.7 0,-13.6 11.1,-24.7 24.7,-24.7 13.6,0 24.7,11.1 24.7,24.7 0,10.3 -6.5,19.2 -15.6,22.9 z m 27.1,95.8 c 1,0 2,-0.2 3,-0.5 5.3,-1.7 8.2,-7.3 6.5,-12.5 l -6,-19.1 c -1.7,-5.3 -7.3,-8.2 -12.5,-6.5 -5.3,1.7 -8.2,7.3 -6.5,12.5 l 6,19.1 c 1.3,4.3 5.2,7 9.5,7 z m 100,7.6 -8,6.1 c -4.4,3.3 -5.3,9.6 -1.9,14 2,2.6 5,3.9 8,3.9 2.1,0 4.2,-0.7 6,-2 l 8,-6.1 c 4.4,-3.3 5.3,-9.6 1.9,-14 -3.3,-4.4 -9.6,-5.2 -14,-1.9 z m 93.6,-58.6 c -3.3,-4.4 -9.6,-5.3 -14,-1.9 l -8,6.1 c -4.4,3.3 -5.3,9.6 -1.9,14 2,2.6 5,3.9 8,3.9 2.1,0 4.2,-0.7 6,-2 l 8,-6.1 c 4.4,-3.3 5.3,-9.6 1.9,-14 z m -53.8,28.3 -8,6.1 c -4.4,3.3 -5.3,9.6 -1.9,14 2,2.6 5,3.9 8,3.9 2.1,0 4.2,-0.7 6,-2 l 8,-6.1 c 4.4,-3.3 5.3,-9.6 1.9,-14 -3.3,-4.3 -9.6,-5.2 -14,-1.9 z m -79.6,60.6 -3.6,2.7 c -7.4,-7.5 -17.6,-12.2 -28.9,-12.2 -1.7,0 -3.3,0.1 -4.9,0.3 l -1.1,-3.6 c -1.7,-5.3 -7.3,-8.2 -12.6,-6.5 -5.3,1.7 -8.2,7.3 -6.5,12.6 l 1.5,4.9 c -10.3,7.4 -17,19.4 -17,33 0,22.4 18.2,40.6 40.6,40.6 22.4,0 40.6,-18.2 40.6,-40.6 0,-3.8 -0.5,-7.5 -1.5,-11 l 5.5,-4.2 c 4.4,-3.3 5.3,-9.6 1.9,-14 -3.3,-4.5 -9.6,-5.4 -14,-2 z m -53.1,31.1 c 0,-11.4 9.2,-20.6 20.6,-20.6 11.4,0 20.6,9.2 20.6,20.6 0,11.4 -9.2,20.6 -20.6,20.6 -11.4,0 -20.6,-9.2 -20.6,-20.6 z"
     fill="#005BFF"
     id="path6"
     style="fill:#bf6900;fill-opacity:1" />
  <path
     d="M 780.3,275.8 H 583.4 V 75.8 C 583.4,34 549.4,0 507.6,0 H 191.7 c -41.8,0 -75.8,34 -75.8,75.8 v 585.4 c 0,41.8 34,75.8 75.8,75.8 H 780.2 C 822,737 856,703.4 856,662.1 V 350.8 c 0.1,-41.4 -33.9,-75 -75.7,-75 z M 507.7,697 h -316 C 172,697 155.9,681 155.9,661.2 V 270 l 2.5,-0.8 c 5.2,-1.8 8,-7.4 6.3,-12.7 -1.3,-3.9 -4.9,-6.5 -8.7,-6.8 V 75.9 c 0,-19.7 16,-35.8 35.8,-35.8 h 315.9 c 19.7,0 35.8,16 35.8,35.8 V 296 c -1.9,0.2 -3.9,1 -5.5,2.3 -4.2,3.6 -4.7,9.9 -1.1,14.1 l 6.5,7.6 0.1,0.1 V 661.3 C 543.4,681 527.4,697 507.7,697 Z m 308.4,-34.9 c 0,19.3 -16,34.9 -35.8,34.9 H 574.5 c 5.7,-10.7 9,-22.8 9,-35.8 V 361.5 c 2.3,0 4.6,-0.8 6.4,-2.4 4.2,-3.6 4.7,-9.9 1.1,-14.1 l -6.5,-7.6 c -0.3,-0.4 -0.7,-0.7 -1.1,-1.1 v -20.5 h 196.9 c 19.7,0 35.8,15.7 35.8,34.9 z"
     fill="#005BFF"
     id="path7"
     style="fill:#bf6900;fill-opacity:1" />
  <path
     d="m 649.4,413.5 c -3.6,-4.2 -9.9,-4.7 -14.1,-1.1 -4.2,3.6 -4.7,9.9 -1.1,14.1 l 6.5,7.6 c 2,2.3 4.8,3.5 7.6,3.5 2.3,0 4.6,-0.8 6.5,-2.4 4.2,-3.6 4.7,-9.9 1.1,-14.1 z m -32.5,-38 c -3.6,-4.2 -9.9,-4.7 -14.1,-1.1 -4.2,3.6 -4.7,9.9 -1.1,14.1 l 6.5,7.6 c 2,2.3 4.8,3.5 7.6,3.5 2.3,0 4.6,-0.8 6.5,-2.4 4.2,-3.6 4.7,-9.9 1.1,-14.1 z"
     fill="#005BFF"
     id="path8"
     style="fill:#bf6900;fill-opacity:1" />
  <path
     d="m 410.2,84 h -121 c -5.5,0 -10,-4.5 -10,-10 0,-5.5 4.5,-10 10,-10 h 121 c 5.5,0 10,4.5 10,10 0,5.5 -4.5,10 -10,10 z"
     fill="#06F3FF"
     id="path9"
     style="fill:#ff7b9c;fill-opacity:1" />
  <path
     d="m 513.8,181.1 c -33.6,0 -60.9,27.3 -60.9,60.9 0,33.6 27.3,60.9 60.9,60.9 33.6,0 60.9,-27.3 60.9,-60.9 0,-33.6 -27.3,-60.9 -60.9,-60.9 z"
     fill="#FFFFFF"
     id="path10"
     style="fill:#f2efea;fill-opacity:1" />
  <path
     d="m 513.8,161.1 c -44.6,0 -80.9,36.3 -80.9,80.9 0,44.6 36.3,80.9 80.9,80.9 44.6,0 80.9,-36.3 80.9,-80.9 0,-44.6 -36.3,-80.9 -80.9,-80.9 z M 453,242 c 0,-33.6 27.3,-60.9 60.9,-60.9 33.6,0 60.9,27.3 60.9,60.9 0,33.6 -27.3,60.9 -60.9,60.9 -33.6,0 -60.9,-27.3 -60.9,-60.9 z"
     fill="#005BFF"
     id="path11"
     style="fill:#bf6900;fill-opacity:1" />
</svg>
