<?xml version="1.0" encoding="UTF-8" standalone="no"?>
<!-- Uploaded to: SVG Repo, www.svgrepo.com, Generator: SVG Repo Mixer Tools -->

<svg
   width="638.7533"
   height="584.5835"
   viewBox="0 0 817.60422 748.26688"
   class="icon"
   version="1.1"
   id="svg6"
   sodipodi:docname="flexible-access-svgrepo-com.svg"
   xmlns:inkscape="http://www.inkscape.org/namespaces/inkscape"
   xmlns:sodipodi="http://sodipodi.sourceforge.net/DTD/sodipodi-0.dtd"
   xmlns="http://www.w3.org/2000/svg"
   xmlns:svg="http://www.w3.org/2000/svg">
  <defs
     id="defs6" />
  <sodipodi:namedview
     id="namedview6"
     pagecolor="#ffffff"
     bordercolor="#000000"
     borderopacity="0.25"
     inkscape:showpageshadow="2"
     inkscape:pageopacity="0.0"
     inkscape:pagecheckerboard="0"
     inkscape:deskcolor="#d1d1d1" />
  <path
     d="m 689.62431,222.16682 c -1,0 -2.1,-0.2 -3.1,-0.5 -5.3,-1.7 -8.1,-7.3 -6.4,-12.6 11.4,-35.1 4.8,-78.8 -17.7,-116.899996 -22.6,-38.5 -58,-65.5 -94.5,-72.3 -5.4,-1 -9,-6.2 -8,-11.6999997 1,-5.4 6.2,-8.99999996 11.7,-7.99999996 42.1,7.89999996 82.5,38.39999966 108,81.79999966 25.3,42.999996 32.6,92.699996 19.4,133.199996 -1.3,4.3 -5.2,7 -9.4,7 z"
     fill="#06F3FF"
     id="path1"
     style="fill:#ff7b9c;fill-opacity:1" />
  <path
     d="m 246.02431,748.26682 c -1.3,0 -2.6,-0.1 -3.9,-0.4 -44.5,-8.7 -87,-41 -113.7,-86.4 -27,-45.8 -34.5,-99 -20,-142.4 3.5,-10.5 14.8,-16.1 25.3,-12.6 10.5,3.5 16.1,14.8 12.6,25.3 -10.8,32.5 -4.7,73.4 16.5,109.4 21,35.7 53.5,60.9 86.9,67.4 10.8,2.1 17.9,12.6 15.8,23.5 -1.8,9.6 -10.1,16.2 -19.5,16.2 z"
     fill="#005BFF"
     id="path2"
     style="fill:#bf6900;fill-opacity:1" />
  <path
     d="m 249.22431,191.56682 c -0.6,0 -1.1,0 -1.7,0.1 h -0.1 c -0.5,0 -1.1,0.1 -1.6,0.2 -2.7,0.4 -5.3,1.3 -7.7,2.8 l -148.7,87.5 22.4,38 148.7,-87.5 c 3.1,-1.8 5.7,-4.3 7.5,-7.3 0.2,-0.3 0.3,-0.6 0.5,-0.8 0.2,-0.3 0.3,-0.6 0.5,-0.9 0.1,-0.2 0.2,-0.5 0.3,-0.7 0,0 0,-0.1 0.1,-0.1 0.2,-0.4 0.3,-0.7 0.5,-1.1 0.1,-0.2 0.2,-0.5 0.3,-0.7 0.2,-0.6 0.4,-1.2 0.6,-1.9 1.5,-5.7 0.6,-11.6 -2.3,-16.7 -4.4,-7 -11.7,-10.9 -19.3,-10.9 z"
     fill="#e6e6e6"
     id="path3" />
  <path
     d="m 247.52431,191.66682 c 0,0 -0.1,0 0,0 -0.1,0 0,0 0,0 z m 22.2,30 c 0.1,-0.2 0.2,-0.5 0.3,-0.7 -0.1,0.3 -0.2,0.5 -0.3,0.7 z m -1.8,3.6 c 0.2,-0.3 0.3,-0.6 0.5,-0.8 -0.1,0.3 -0.3,0.5 -0.5,0.8 z m 1.4,-2.5 c 0,0 0,0.1 -0.1,0.1 z"
     fill="#005bff"
     id="path4" />
  <path
     d="m 547.02431,518.96682 c -1.5,5.7 -0.6,11.6 2.3,16.7 6.2,10.5 19.7,14 30.1,7.8 l 148.7,-87.5 -22.3,-38 -148.7,87.5 c -5,3.1 -8.6,7.8 -10.1,13.5 z"
     fill="#e6e6e6"
     id="path5" />
  <path
     d="m 809.02431,382.86682 c -8.4,-14.3 -21.9,-24.4 -37.9,-28.6 -16,-4.2 -32.7,-1.8 -47,6.6 l -187.2,110.2 c -14.3,8.4 -24.4,21.9 -28.6,37.9 -2.4,9.3 -2.6,18.9 -0.7,28.1 l -167.6,98.7 c -20.1,11.8 -43.7,15.2 -66.3,9.3 -22.6,-5.9 -41.6,-20.2 -53.4,-40.3 -24.5,-41.5 -10.6,-95.2 31,-119.7 l 323.1,-190.3 c 1.3,-0.8 2.6,-1.7 3.6,-2.8 l 7.4,-4.4 c 29.3,-17.3 50.2,-44.9 58.7,-77.9 8.5,-33 3.7,-67.3 -13.6,-96.6 -35.7,-60.499996 -113.9,-80.799996 -174.5,-45.199996 l -166.8,98.199996 c -7,-6 -15.4,-10.3 -24.5,-12.7 -16,-4.1 -32.7,-1.8 -47,6.6 l -187.1,110.4 c -14.3,8.4 -24.3999997,21.9 -28.5999997,37.9 -4.2,16 -1.8,32.7 6.6,47 8.3999997,14.3 21.8999997,24.4 37.8999997,28.6 5.2,1.3 10.4,2 15.6,2 10.9,0 21.7,-2.9 31.4,-8.6 l 187.2,-110.2 c 14.3,-8.4 24.4,-21.9 28.6,-37.9 2.5,-9.5 2.6,-19.3 0.6,-28.6 l 166.5,-98.1 c 41.5,-24.499996 95.2,-10.599996 119.7,31 11.8,20.1 15.2,43.7 9.3,66.3 -5.9,22.6 -20.2,41.6 -40.3,53.4 l -323,190.3 c -1.3,0.8 -2.6,1.7 -3.6,2.8 l -7.4,4.4 c -60.5,35.7 -80.8,113.9 -45.2,174.5 23.7,40.3 66.3,62.7 110,62.7 22,0 44.2,-5.7 64.4,-17.6 l 167.6,-98.7 c 11.3,9.7 25.8,15 40.5,15 10.7,0 21.5,-2.8 31.4,-8.6 l 187.2,-110.2 c 14.3,-8.4 24.4,-21.9 28.6,-37.9 4.1,-16.1 1.8,-32.8 -6.6,-47 z m -735.8,-40.1 c -10.5,6.2 -24,2.7 -30.1,-7.8 -3,-5.1 -3.8,-11 -2.3,-16.7 1.5,-5.7 5.1,-10.5 10.1,-13.5 l 21.3,-12.5 22.3,37.9 z m 197.4,-123.6 c -0.2,0.6 -0.4,1.3 -0.6,1.9 -0.1,0.2 -0.2,0.5 -0.3,0.7 -0.1,0.4 -0.3,0.7 -0.5,1.1 0,0 0,0.1 -0.1,0.1 -0.2,0.5 -0.5,1.1 -0.8,1.6 -0.2,0.3 -0.3,0.6 -0.5,0.8 -1.9,3 -4.4,5.5 -7.5,7.3 l -148.5,87.5 -22.4,-38 148.7,-87.5 c 2.5,-1.4 5.1,-2.4 7.7,-2.8 0.5,-0.1 1.1,-0.1 1.6,-0.2 0.6,-0.1 1.2,-0.1 1.8,-0.1 7.5,0 14.9,3.9 19,10.8 3,5.1 3.9,11.1 2.4,16.8 z m 308.9,324.3 c -2.8,1.7 -5.9,2.6 -8.9,2.9 -8.3,0.8 -16.7,-3.1 -21.2,-10.7 -3,-5.1 -3.8,-11 -2.3,-16.7 0.7,-2.6 1.8,-4.9 3.3,-7.1 1.8,-2.6 4.1,-4.8 6.9,-6.4 l 148.5,-87.5 22.3,37.9 z m 187.2,-110.2 -21.3,12.5 -22.3,-37.9 21.3,-12.5 c 3.4,-2 7.3,-3.1 11.1,-3.1 1.9,0 3.7,0.2 5.6,0.7 5.7,1.5 10.5,5.1 13.5,10.1 6.1,10.5 2.6,24 -7.9,30.2 z"
     fill="#005BFF"
     id="path6"
     style="fill:#bf6900;fill-opacity:1" />
</svg>
