<?xml version="1.0" encoding="UTF-8" standalone="no"?>
<!-- Uploaded to: SVG Repo, www.svgrepo.com, Generator: SVG Repo Mixer Tools -->

<svg
   width="577.33392"
   height="578.28125"
   viewBox="0 0 738.98742 740.2"
   class="icon"
   version="1.1"
   id="svg5"
   sodipodi:docname="mail-reception-svgrepo-com.svg"
   inkscape:export-filename="..\Desktop\website new\mail icon.svg"
   inkscape:export-xdpi="96"
   inkscape:export-ydpi="96"
   xmlns:inkscape="http://www.inkscape.org/namespaces/inkscape"
   xmlns:sodipodi="http://sodipodi.sourceforge.net/DTD/sodipodi-0.dtd"
   xmlns="http://www.w3.org/2000/svg"
   xmlns:svg="http://www.w3.org/2000/svg">
  <defs
     id="defs5" />
  <sodipodi:namedview
     id="namedview5"
     pagecolor="#ffffff"
     bordercolor="#000000"
     borderopacity="0.25"
     inkscape:showpageshadow="2"
     inkscape:pageopacity="0.0"
     inkscape:pagecheckerboard="0"
     inkscape:deskcolor="#d1d1d1" />
  <path
     d="m 121.08741,262.8 -38.699995,17.3 -0.4,0.2 c -16.2,6.4 -26.4,12.4 -32.6,18.5 l 71.799995,38.8 v -74.8 z m 535,16.9 -37.6,-16.7 v 74.4 l 70.6,-38.2 c -6.5,-5.6 -16.9,-11.5 -33,-19.5 z"
     fill="#e6e6e6"
     id="path2" />
  <path
     d="M 110.88741,616.6 V 423.7 c 0,-5.5 -4.5,-10 -10,-10 -5.499995,0 -9.999995,4.5 -9.999995,10 v 192.9 c 0,19.5 15.899995,35.4 35.399995,35.4 h 298.8 c 5.5,0 10,-4.5 10,-10 0,-5.5 -4.5,-10 -10,-10 h -298.9 c -8.4,-0.1 -15.3,-7 -15.3,-15.4 z"
     fill="#06F3FF"
     id="path3"
     style="fill:#ff7b9c;fill-opacity:1" />
  <path
     d="m 161.08741,231.6 z m 575.2,69.1 c 0,0.2 0.1,0.3 0.1,0.4 0,-0.1 -0.1,-0.3 -0.1,-0.4 z m -270.8,37.8 c 15.4,-8.5 27.6,-20.2 35.1,-33.4 2.4,-2.2 3.8,-5.1 4,-8.3 0.3,-0.8 0.7,-1.7 1,-2.5 h -1 c -0.2,-6.8 -5.9,-12.2 -12.8,-12.2 -6.6,0 -12.1,5 -12.7,11.6 h -0.2 c -9.9,12.4 -23,21.1 -39.2,27.3 -16.2,6.2 -35.6,10.2 -58.2,10.2 -23.4,0 -42.8,-4.6 -61,-12 -17.9,-7.2 -33,-19.9 -43.2,-36.2 -10,-16.1 -15,-33.3 -15,-53 0,-20.2 5.1,-39.6 14.1,-58.3 8.7,-18.3 22.8,-33.4 40.4,-43.4 17.8,-10.3 38.2,-15.6 63.7,-15.6 30.1,0 53.6,7.9 70.4,23.3 16.8,15.4 21.8,34.6 21.8,57.5 0,12.8 -1.6,25.1 -7.5,37 -5.9,11.9 -11.7,18.4 -21.3,25.5 -7.1,5.4 -23.1,11.7 -27.7,11.7 -1.5,0 -2.8,-0.6 -3.9,-1.8 -1.1,-1.1 -1.6,-2.9 -1.6,-5.2 0.3,-4.3 1,-8.6 2,-12.9 l 21,-80.3 c 1,-1.8 1.8,-3.7 1.8,-5.9 l -0.1,-0.6 0.1,-0.4 h -0.1 v -0.1 c 0,-6.7 -5.6,-12.2 -12.4,-12.2 -3.3,0 -6.4,1.2 -8.8,3.5 -2.3,2.3 -3.7,5.4 -3.7,8.7 l 0.1,1.1 c 0,0.8 0.3,1.5 0.5,2.2 l -1.3,4.7 c -8,-12.7 -26.8,-20.5 -43.7,-20.5 -14.3,0 -35.7,9.9 -50.3,32.2 -10.8,17.1 -17,36.7 -17.8,56.8 -0.6,17.7 4.7,33.4 15,44 10.3,10.6 23,13.7 30.9,13.7 14.5,0 27.4,-5.3 38.5,-15.9 1.1,4.8 3.9,9 7.9,11.8 3.9,2.7 9.8,4.1 17.7,4.1 29.1,0 55.9,-15.2 70.7,-35.6 12.7,-17.3 19.8,-40.6 19.8,-64.3 0,-19.9 -3.2,-38.3 -13,-55.1 -9.8,-16.8 -22.4,-29.8 -40.9,-38.9 -18.5,-9.1 -39.6,-13.7 -63.4,-13.7 -28,0 -53,5.7 -74.8,17 -21.8,11.3 -39,28.3 -51.5,50.8 -12.6,22.6 -18.9,46.9 -18.9,73.1 -0.2,23.1 5.5,45.8 16.6,66.1 11.2,20.9 29,37.4 50.6,47.2 22.7,10.4 49.5,15.6 80.7,15.6 32,0 59.3,-6.1 81.6,-18.4 z m -77.2,-106.9 c -3.7,10.9 -8,19.2 -13,24.9 -3.5,4 -7.1,6.9 -10.6,8.8 -4.7,2.6 -8.2,4.6 -13.6,4.6 -7.2,0 -16.3,-2.8 -21.1,-8.4 -4.9,-5.6 -7.3,-14.3 -7.3,-26.1 0,-8.8 4.6,-19 8.1,-30.4 3.5,-11.4 8.7,-17.2 15.6,-23.4 6.9,-6.2 13.2,-7.9 21.3,-7.9 7.6,0 15.6,2.2 20.5,7.8 5,5.6 8.1,10 8.1,20.5 0.1,9.3 -4.4,18.7 -8,29.6 z"
     fill="#005BFF"
     id="path4"
     style="fill:#bf6900;fill-opacity:1" />
  <path
     d="m 736.38741,301.1 c 0,-0.2 -0.1,-0.3 -0.1,-0.4 -8.7,-30.2 -37.2,-44.3 -62.8,-57 l -0.4,-0.2 -54.6,-24.4 V 0 l -497.4,2.5 V 219 l -54.199995,24.2 c -31.1,12.3 -66.70000045,32.3 -66.70000045,77.5 v 345.1 c 0,41 33.40000045,74.4 74.40000045,74.4 H 664.58741 c 41,0 74.4,-33.4 74.4,-74.4 V 320.7 c 0,-7.2 -0.9,-13.7 -2.6,-19.6 z m -117.9,-38.1 37.6,16.8 c 16.2,8 26.5,13.9 33,19.4 l -70.6,38.2 z m -457.4,-31.4 V 42.3 l 417.4,-2.1 V 359 l -199,107.7 c -6.1,3.3 -13.5,3.3 -19.6,0 l -198.8,-107.5 z m -40,31.2 v 74.8 L 49.287415,298.7 c 6.2,-6.1 71.799995,-35.9 71.799995,-35.9 z m 577.9,403 c 0,19 -15.4,34.4 -34.4,34.4 H 74.587415 c -19,0 -34.4,-15.4 -34.4,-34.4 V 339.3 L 340.68741,502 c 9,4.9 18.9,7.3 28.9,7.3 9.9,0 19.8,-2.4 28.9,-7.3 l 300.5,-162.7 z"
     fill="#005BFF"
     id="path5"
     style="fill:#bf6900;fill-opacity:1" />
</svg>
