<?xml version="1.0" encoding="UTF-8" standalone="no"?>
<!-- Created with Inkscape (http://www.inkscape.org/) -->

<svg
   width="595.43286mm"
   height="356.02774mm"
   viewBox="0 0 595.43286 356.02774"
   version="1.1"
   id="svg1"
   xmlns:inkscape="http://www.inkscape.org/namespaces/inkscape"
   xmlns:sodipodi="http://sodipodi.sourceforge.net/DTD/sodipodi-0.dtd"
   xmlns="http://www.w3.org/2000/svg"
   xmlns:svg="http://www.w3.org/2000/svg">
  <sodipodi:namedview
     id="namedview1"
     pagecolor="#ffffff"
     bordercolor="#000000"
     borderopacity="0.25"
     inkscape:showpageshadow="2"
     inkscape:pageopacity="0.0"
     inkscape:pagecheckerboard="0"
     inkscape:deskcolor="#d1d1d1"
     inkscape:document-units="mm"
     showborder="false"
     showgrid="true"
     inkscape:zoom="0.70710678"
     inkscape:cx="-122.32947"
     inkscape:cy="-1202.7886"
     inkscape:window-width="1360"
     inkscape:window-height="697"
     inkscape:window-x="-8"
     inkscape:window-y="-8"
     inkscape:window-maximized="1"
     inkscape:current-layer="layer1">
    <inkscape:grid
       type="axonomgrid"
       id="grid1"
       units="px"
       originx="561.0625"
       originy="446.03696"
       spacingx="0"
       spacingy="13.229167"
       empcolor="#0099e5"
       empopacity="0.30196078"
       color="#0099e5"
       opacity="0.14901961"
       empspacing="5"
       dotted="false"
       gridanglex="30"
       gridanglez="30"
       visible="true" />
  </sodipodi:namedview>
  <defs
     id="defs1">
    <inkscape:path-effect
       effect="fillet_chamfer"
       id="path-effect85"
       is_visible="true"
       lpeversion="1"
       nodesatellites_param="F,0,1,1,0,6.6238186,0,1 @ F,0,1,1,0,6.6238186,0,1 @ F,0,0,1,0,6.6238186,0,1 @ F,0,1,1,0,6.6238186,0,1"
       radius="0"
       unit="px"
       method="auto"
       mode="F"
       chamfer_steps="1"
       flexible="false"
       use_knot_distance="true"
       apply_no_radius="true"
       apply_with_radius="true"
       only_selected="false"
       hide_knots="false" />
    <inkscape:path-effect
       effect="fillet_chamfer"
       id="path-effect84"
       is_visible="true"
       lpeversion="1"
       nodesatellites_param="F,0,1,1,0,6.7259706,0,1 @ F,0,1,1,0,6.7259706,0,1 @ F,0,0,1,0,6.7259706,0,1 @ F,0,1,1,0,6.7259706,0,1"
       radius="0"
       unit="px"
       method="auto"
       mode="F"
       chamfer_steps="1"
       flexible="false"
       use_knot_distance="true"
       apply_no_radius="true"
       apply_with_radius="true"
       only_selected="false"
       hide_knots="false" />
    <inkscape:path-effect
       effect="fillet_chamfer"
       id="path-effect83"
       is_visible="true"
       lpeversion="1"
       nodesatellites_param="F,0,1,1,0,6.7348302,0,1 @ F,0,1,1,0,6.7348302,0,1 @ F,0,0,1,0,6.7348302,0,1 @ F,0,1,1,0,6.7348302,0,1"
       radius="0"
       unit="px"
       method="auto"
       mode="F"
       chamfer_steps="1"
       flexible="false"
       use_knot_distance="true"
       apply_no_radius="true"
       apply_with_radius="true"
       only_selected="false"
       hide_knots="false" />
    <inkscape:path-effect
       effect="fillet_chamfer"
       id="path-effect82"
       is_visible="true"
       lpeversion="1"
       nodesatellites_param="F,0,1,1,0,6.7516055,0,1 @ F,0,1,1,0,6.7516055,0,1 @ F,0,0,1,0,6.7516055,0,1 @ F,0,1,1,0,6.7516055,0,1"
       radius="0"
       unit="px"
       method="auto"
       mode="F"
       chamfer_steps="1"
       flexible="false"
       use_knot_distance="true"
       apply_no_radius="true"
       apply_with_radius="true"
       only_selected="false"
       hide_knots="false" />
    <inkscape:path-effect
       effect="fillet_chamfer"
       id="path-effect81"
       is_visible="true"
       lpeversion="1"
       nodesatellites_param="F,0,1,1,0,6.7185968,0,1 @ F,0,1,1,0,6.7185968,0,1 @ F,0,1,1,0,6.7185968,0,1 @ F,0,0,1,0,6.7185968,0,1"
       radius="0"
       unit="px"
       method="auto"
       mode="F"
       chamfer_steps="1"
       flexible="false"
       use_knot_distance="true"
       apply_no_radius="true"
       apply_with_radius="true"
       only_selected="false"
       hide_knots="false" />
    <inkscape:path-effect
       effect="fillet_chamfer"
       id="path-effect80"
       is_visible="true"
       lpeversion="1"
       nodesatellites_param="F,0,1,1,0,6.7311278,0,1 @ F,0,1,1,0,6.7311278,0,1 @ F,0,0,1,0,6.7311278,0,1 @ F,0,1,1,0,6.7311278,0,1"
       radius="0"
       unit="px"
       method="auto"
       mode="F"
       chamfer_steps="1"
       flexible="false"
       use_knot_distance="true"
       apply_no_radius="true"
       apply_with_radius="true"
       only_selected="false"
       hide_knots="false" />
    <inkscape:path-effect
       effect="fillet_chamfer"
       id="path-effect79"
       is_visible="true"
       lpeversion="1"
       nodesatellites_param="F,0,1,1,0,6.6517961,0,1 @ F,0,1,1,0,6.6517961,0,1 @ F,0,0,1,0,6.6517961,0,1 @ F,0,1,1,0,6.6517961,0,1"
       radius="0"
       unit="px"
       method="auto"
       mode="F"
       chamfer_steps="1"
       flexible="false"
       use_knot_distance="true"
       apply_no_radius="true"
       apply_with_radius="true"
       only_selected="false"
       hide_knots="false" />
    <inkscape:path-effect
       effect="fillet_chamfer"
       id="path-effect77"
       is_visible="true"
       lpeversion="1"
       nodesatellites_param="F,0,1,1,0,26.458333,0,1 @ F,0,1,1,0,26.458333,0,1 @ F,0,0,1,0,26.458333,0,1 @ F,0,1,1,0,26.458333,0,1"
       radius="0"
       unit="px"
       method="auto"
       mode="F"
       chamfer_steps="1"
       flexible="false"
       use_knot_distance="true"
       apply_no_radius="true"
       apply_with_radius="true"
       only_selected="false"
       hide_knots="false" />
    <inkscape:path-effect
       effect="fillet_chamfer"
       id="path-effect76"
       is_visible="true"
       lpeversion="1"
       nodesatellites_param="F,0,1,1,0,26.458334,0,1 @ F,0,1,1,0,26.458334,0,1 @ F,0,1,1,0,26.458334,0,1 @ F,0,0,1,0,26.458334,0,1"
       radius="0"
       unit="px"
       method="auto"
       mode="F"
       chamfer_steps="1"
       flexible="false"
       use_knot_distance="true"
       apply_no_radius="true"
       apply_with_radius="true"
       only_selected="false"
       hide_knots="false" />
    <inkscape:path-effect
       effect="fillet_chamfer"
       id="path-effect74"
       is_visible="true"
       lpeversion="1"
       nodesatellites_param="F,0,1,1,0,6.7259689,0,1 @ F,0,1,1,0,6.7259689,0,1 @ F,0,1,1,0,6.7259689,0,1 @ F,0,0,1,0,6.7259689,0,1"
       radius="0"
       unit="px"
       method="auto"
       mode="F"
       chamfer_steps="1"
       flexible="false"
       use_knot_distance="true"
       apply_no_radius="true"
       apply_with_radius="true"
       only_selected="false"
       hide_knots="false" />
    <inkscape:path-effect
       effect="fillet_chamfer"
       id="path-effect73"
       is_visible="true"
       lpeversion="1"
       nodesatellites_param="F,0,1,1,0,6.6700171,0,1 @ F,0,1,1,0,6.6700171,0,1 @ F,0,1,1,0,6.6700171,0,1 @ F,0,0,1,0,6.6700171,0,1"
       radius="0"
       unit="px"
       method="auto"
       mode="F"
       chamfer_steps="1"
       flexible="false"
       use_knot_distance="true"
       apply_no_radius="true"
       apply_with_radius="true"
       only_selected="false"
       hide_knots="false" />
    <inkscape:path-effect
       effect="fillet_chamfer"
       id="path-effect72"
       is_visible="true"
       lpeversion="1"
       nodesatellites_param="F,0,1,1,0,6.5761246,0,1 @ F,0,1,1,0,6.5761246,0,1 @ F,0,1,1,0,6.5761246,0,1 @ F,0,0,1,0,6.5761246,0,1"
       radius="0"
       unit="px"
       method="auto"
       mode="F"
       chamfer_steps="1"
       flexible="false"
       use_knot_distance="true"
       apply_no_radius="true"
       apply_with_radius="true"
       only_selected="false"
       hide_knots="false" />
    <inkscape:path-effect
       effect="fillet_chamfer"
       id="path-effect71"
       is_visible="true"
       lpeversion="1"
       nodesatellites_param="F,0,1,1,0,6.6349145,0,1 @ F,0,1,1,0,6.6349145,0,1 @ F,0,1,1,0,6.6349145,0,1 @ F,0,0,1,0,6.6349145,0,1"
       radius="0"
       unit="px"
       method="auto"
       mode="F"
       chamfer_steps="1"
       flexible="false"
       use_knot_distance="true"
       apply_no_radius="true"
       apply_with_radius="true"
       only_selected="false"
       hide_knots="false" />
    <inkscape:path-effect
       effect="fillet_chamfer"
       id="path-effect70"
       is_visible="true"
       lpeversion="1"
       nodesatellites_param="F,0,1,1,0,6.7055768,0,1 @ F,0,1,1,0,6.7055768,0,1 @ F,0,1,1,0,6.7055768,0,1 @ F,0,0,1,0,6.7055768,0,1"
       radius="0"
       unit="px"
       method="auto"
       mode="F"
       chamfer_steps="1"
       flexible="false"
       use_knot_distance="true"
       apply_no_radius="true"
       apply_with_radius="true"
       only_selected="false"
       hide_knots="false" />
    <inkscape:path-effect
       effect="fillet_chamfer"
       id="path-effect68"
       is_visible="true"
       lpeversion="1"
       nodesatellites_param="F,0,1,1,0,6.6354797,0,1 @ F,0,1,1,0,6.6354797,0,1 @ F,0,0,1,0,6.6354797,0,1 @ F,0,1,1,0,6.6354797,0,1"
       radius="0"
       unit="px"
       method="auto"
       mode="F"
       chamfer_steps="1"
       flexible="false"
       use_knot_distance="true"
       apply_no_radius="true"
       apply_with_radius="true"
       only_selected="false"
       hide_knots="false" />
    <inkscape:path-effect
       effect="fillet_chamfer"
       id="path-effect67"
       is_visible="true"
       lpeversion="1"
       nodesatellites_param="F,0,1,1,0,6.5643416,0,1 @ F,0,1,1,0,6.5643416,0,1 @ F,0,0,1,0,6.5643416,0,1 @ F,0,1,1,0,6.5643416,0,1"
       radius="0"
       unit="px"
       method="auto"
       mode="F"
       chamfer_steps="1"
       flexible="false"
       use_knot_distance="true"
       apply_no_radius="true"
       apply_with_radius="true"
       only_selected="false"
       hide_knots="false" />
    <inkscape:path-effect
       effect="fillet_chamfer"
       id="path-effect66"
       is_visible="true"
       lpeversion="1"
       nodesatellites_param="F,0,1,1,0,6.748247,0,1 @ F,0,1,1,0,6.748247,0,1 @ F,0,0,1,0,6.748247,0,1 @ F,0,1,1,0,6.748247,0,1"
       radius="0"
       unit="px"
       method="auto"
       mode="F"
       chamfer_steps="1"
       flexible="false"
       use_knot_distance="true"
       apply_no_radius="true"
       apply_with_radius="true"
       only_selected="false"
       hide_knots="false" />
    <inkscape:path-effect
       effect="fillet_chamfer"
       id="path-effect65"
       is_visible="true"
       lpeversion="1"
       nodesatellites_param="F,0,1,1,0,6.8047991,0,1 @ F,0,0,1,0,6.8047991,0,1 @ F,0,1,1,0,6.8047991,0,1 @ F,0,1,1,0,6.8047991,0,1"
       radius="0"
       unit="px"
       method="auto"
       mode="F"
       chamfer_steps="1"
       flexible="false"
       use_knot_distance="true"
       apply_no_radius="true"
       apply_with_radius="true"
       only_selected="false"
       hide_knots="false" />
    <inkscape:path-effect
       effect="fillet_chamfer"
       id="path-effect64"
       is_visible="true"
       lpeversion="1"
       nodesatellites_param="F,0,0,1,0,7.5173432,0,1 @ F,0,0,1,0,0,0,1 @ F,0,0,1,0,6.9604925,0,1 @ F,0,0,1,0,6.1200579,0,1"
       radius="0"
       unit="px"
       method="auto"
       mode="F"
       chamfer_steps="1"
       flexible="false"
       use_knot_distance="true"
       apply_no_radius="true"
       apply_with_radius="true"
       only_selected="false"
       hide_knots="false" />
    <inkscape:path-effect
       effect="fillet_chamfer"
       id="path-effect63"
       is_visible="true"
       lpeversion="1"
       nodesatellites_param="F,0,1,1,0,6.635124,0,1 @ F,0,0,1,0,6.635124,0,1 @ F,0,1,1,0,6.635124,0,1 @ F,0,1,1,0,6.635124,0,1"
       radius="0"
       unit="px"
       method="auto"
       mode="F"
       chamfer_steps="1"
       flexible="false"
       use_knot_distance="true"
       apply_no_radius="true"
       apply_with_radius="true"
       only_selected="false"
       hide_knots="false" />
    <inkscape:path-effect
       effect="fillet_chamfer"
       id="path-effect62"
       is_visible="true"
       lpeversion="1"
       nodesatellites_param="F,0,1,1,0,6.6455277,0,1 @ F,0,1,1,0,6.6455277,0,1 @ F,0,0,1,0,6.6455277,0,1 @ F,0,1,1,0,6.6455277,0,1"
       radius="0"
       unit="px"
       method="auto"
       mode="F"
       chamfer_steps="1"
       flexible="false"
       use_knot_distance="true"
       apply_no_radius="true"
       apply_with_radius="true"
       only_selected="false"
       hide_knots="false" />
    <inkscape:path-effect
       effect="fillet_chamfer"
       id="path-effect61"
       is_visible="true"
       lpeversion="1"
       nodesatellites_param="F,0,1,1,0,6.6038126,0,1 @ F,0,1,1,0,6.6038126,0,1 @ F,0,1,1,0,6.6038126,0,1 @ F,0,0,1,0,6.6038126,0,1"
       radius="0"
       unit="px"
       method="auto"
       mode="F"
       chamfer_steps="1"
       flexible="false"
       use_knot_distance="true"
       apply_no_radius="true"
       apply_with_radius="true"
       only_selected="false"
       hide_knots="false" />
    <inkscape:path-effect
       effect="fillet_chamfer"
       id="path-effect60"
       is_visible="true"
       lpeversion="1"
       nodesatellites_param="F,0,1,1,0,6.5964738,0,1 @ F,0,1,1,0,6.5964738,0,1 @ F,0,1,1,0,6.5964738,0,1 @ F,0,0,1,0,6.5964738,0,1"
       radius="0"
       unit="px"
       method="auto"
       mode="F"
       chamfer_steps="1"
       flexible="false"
       use_knot_distance="true"
       apply_no_radius="true"
       apply_with_radius="true"
       only_selected="false"
       hide_knots="false" />
    <inkscape:path-effect
       effect="fillet_chamfer"
       id="path-effect59"
       is_visible="true"
       lpeversion="1"
       nodesatellites_param="F,0,1,1,0,6.5750414,0,1 @ F,0,1,1,0,6.5750414,0,1 @ F,0,1,1,0,6.5750414,0,1 @ F,0,0,1,0,6.5750414,0,1"
       radius="0"
       unit="px"
       method="auto"
       mode="F"
       chamfer_steps="1"
       flexible="false"
       use_knot_distance="true"
       apply_no_radius="true"
       apply_with_radius="true"
       only_selected="false"
       hide_knots="false" />
    <inkscape:path-effect
       effect="fillet_chamfer"
       id="path-effect55"
       is_visible="true"
       lpeversion="1"
       nodesatellites_param="F,0,1,1,0,6.6008029,0,1 @ F,0,0,1,0,6.6008029,0,1 @ F,0,1,1,0,6.6008029,0,1 @ F,0,1,1,0,6.6008029,0,1"
       radius="0"
       unit="px"
       method="auto"
       mode="F"
       chamfer_steps="1"
       flexible="false"
       use_knot_distance="true"
       apply_no_radius="true"
       apply_with_radius="true"
       only_selected="false"
       hide_knots="false" />
    <inkscape:path-effect
       effect="fillet_chamfer"
       id="path-effect54"
       is_visible="true"
       lpeversion="1"
       nodesatellites_param="F,0,1,1,0,6.6917553,0,1 @ F,0,1,1,0,6.6917553,0,1 @ F,0,1,1,0,6.6917553,0,1 @ F,0,0,1,0,6.6917553,0,1"
       radius="0"
       unit="px"
       method="auto"
       mode="F"
       chamfer_steps="1"
       flexible="false"
       use_knot_distance="true"
       apply_no_radius="true"
       apply_with_radius="true"
       only_selected="false"
       hide_knots="false" />
    <inkscape:path-effect
       effect="fillet_chamfer"
       id="path-effect53"
       is_visible="true"
       lpeversion="1"
       nodesatellites_param="F,0,1,1,0,6.6601264,0,1 @ F,0,1,1,0,6.6601264,0,1 @ F,0,1,1,0,6.6601264,0,1 @ F,0,0,1,0,6.6601264,0,1"
       radius="0"
       unit="px"
       method="auto"
       mode="F"
       chamfer_steps="1"
       flexible="false"
       use_knot_distance="true"
       apply_no_radius="true"
       apply_with_radius="true"
       only_selected="false"
       hide_knots="false" />
    <inkscape:path-effect
       effect="fillet_chamfer"
       id="path-effect51"
       is_visible="true"
       lpeversion="1"
       nodesatellites_param="F,0,1,1,0,6.6799228,0,1 @ F,0,0,1,0,6.6799228,0,1 @ F,0,1,1,0,6.6799228,0,1 @ F,0,1,1,0,6.6799228,0,1"
       radius="0"
       unit="px"
       method="auto"
       mode="F"
       chamfer_steps="1"
       flexible="false"
       use_knot_distance="true"
       apply_no_radius="true"
       apply_with_radius="true"
       only_selected="false"
       hide_knots="false" />
    <inkscape:path-effect
       effect="fillet_chamfer"
       id="path-effect47"
       is_visible="true"
       lpeversion="1"
       nodesatellites_param="F,0,1,1,0,6.4791099,0,1 @ F,0,1,1,0,6.4791099,0,1 @ F,0,0,1,0,6.4791099,0,1 @ F,0,1,1,0,6.4791099,0,1"
       radius="0"
       unit="px"
       method="auto"
       mode="F"
       chamfer_steps="1"
       flexible="false"
       use_knot_distance="true"
       apply_no_radius="true"
       apply_with_radius="true"
       only_selected="false"
       hide_knots="false" />
    <inkscape:path-effect
       effect="fillet_chamfer"
       id="path-effect45"
       is_visible="true"
       lpeversion="1"
       nodesatellites_param="F,0,1,1,0,13.229173,0,1 @ F,0,0,1,0,13.229173,0,1 @ F,0,1,1,0,13.229173,0,1 @ F,0,1,1,0,13.229173,0,1"
       radius="0"
       unit="px"
       method="auto"
       mode="F"
       chamfer_steps="1"
       flexible="false"
       use_knot_distance="true"
       apply_no_radius="true"
       apply_with_radius="true"
       only_selected="false"
       hide_knots="false" />
    <inkscape:path-effect
       effect="fillet_chamfer"
       id="path-effect7"
       is_visible="true"
       lpeversion="1"
       nodesatellites_param="F,0,1,1,0,39.687498,0,1 @ F,0,1,1,0,39.687498,0,1 @ F,0,1,1,0,39.687498,0,1 @ F,0,0,1,0,39.687498,0,1"
       radius="0"
       unit="px"
       method="auto"
       mode="F"
       chamfer_steps="1"
       flexible="false"
       use_knot_distance="true"
       apply_no_radius="true"
       apply_with_radius="true"
       only_selected="false"
       hide_knots="false" />
    <inkscape:path-effect
       effect="fillet_chamfer"
       id="path-effect5"
       is_visible="true"
       lpeversion="1"
       nodesatellites_param="F,0,1,1,0,39.687498,0,1 @ F,0,1,1,0,39.687498,0,1 @ F,0,1,1,0,39.687498,0,1 @ F,0,0,1,0,39.687498,0,1"
       radius="0"
       unit="px"
       method="auto"
       mode="F"
       chamfer_steps="1"
       flexible="false"
       use_knot_distance="true"
       apply_no_radius="true"
       apply_with_radius="true"
       only_selected="false"
       hide_knots="false" />
    <inkscape:path-effect
       effect="fillet_chamfer"
       id="path-effect3"
       is_visible="true"
       lpeversion="1"
       nodesatellites_param="F,0,1,1,0,6.4791099,0,1 @ F,0,1,1,0,6.4791099,0,1 @ F,0,0,1,0,6.4791099,0,1 @ F,0,1,1,0,6.4791099,0,1"
       radius="0"
       unit="px"
       method="auto"
       mode="F"
       chamfer_steps="1"
       flexible="false"
       use_knot_distance="true"
       apply_no_radius="true"
       apply_with_radius="true"
       only_selected="false"
       hide_knots="false" />
  </defs>
  <g
     inkscape:label="Layer 1"
     inkscape:groupmode="layer"
     id="layer1"
     transform="translate(561.0625,446.03699)">
    <g
       id="g85">
      <path
         style="fill:#5a5a5a;fill-opacity:1;stroke:none;stroke-width:1;stroke-dasharray:none;stroke-opacity:1"
         d="m -378.07421,-112.44791 -171.85192,-99.21875 a 22.272742,22.272742 90.698729 0 1 0.47372,-38.84338 l 342.7564,-186.89657 a 70.718615,70.718615 0.69872901 0 1 69.21448,0.84412 l 160.395119,92.60416 a 22.913587,22.913587 90 0 1 0,39.6875 l -332.247039,191.82292 a 68.740764,68.740764 180 0 1 -68.74076,0 z"
         id="path3"
         inkscape:path-effect="#path-effect5"
         inkscape:original-d="m -343.70383,-92.604166 -240.59268,-138.906244 412.4446,-224.89583 229.135881,132.29166 z"
         transform="translate(0,13.229165)" />
      <path
         style="fill:#808080;fill-opacity:1;stroke:none;stroke-width:1;stroke-dasharray:none;stroke-opacity:1"
         d="m -378.07421,-112.44791 -171.85192,-99.21875 a 22.272742,22.272742 90.698729 0 1 0.47372,-38.84338 l 342.7564,-186.89657 a 70.718615,70.718615 0.69872901 0 1 69.21448,0.84412 l 160.395119,92.60416 a 22.913587,22.913587 90 0 1 0,39.6875 l -332.247039,191.82292 a 68.740764,68.740764 180 0 1 -68.74076,0 z"
         id="path5"
         inkscape:path-effect="#path-effect7"
         inkscape:original-d="m -343.70383,-92.604166 -240.59268,-138.906244 412.4446,-224.89583 229.135881,132.29166 z" />
      <path
         style="fill:#afafaf;fill-opacity:1;stroke:none;stroke-width:1;stroke-dasharray:none;stroke-opacity:1"
         d="m -475.33965,-188.58337 -0.23464,0.13548 a 3.7407139,3.7407139 90.000012 0 0 -10e-6,6.4791 l 46.06184,26.59382 a 11.222148,11.222148 1.0050172e-6 0 0 11.22214,0 l 0.23465,-0.13548 a 3.7407159,3.7407159 90.000003 0 0 0,-6.47911 l -46.06183,-26.5938 a 11.222152,11.222152 1.3998072e-5 0 0 -11.22215,-1e-5 z"
         id="path1"
         inkscape:path-effect="#path-effect3"
         inkscape:original-d="m -469.72857,-191.82292 -11.4568,6.61458 57.28398,33.07292 11.45679,-6.61458 z"
         sodipodi:nodetypes="ccccc" />
      <path
         style="fill:#bf6900;fill-opacity:1;stroke:none;stroke-width:1;stroke-dasharray:none;stroke-opacity:1"
         d="m -160.39511,-343.95833 a 7.6378609,7.6378609 90.000047 0 1 -1e-5,13.22917 22.913587,22.913587 1.2462693e-5 0 1 -22.91359,-1e-5 7.6378624,7.6378624 90.000047 0 1 1e-5,-13.22916 22.9136,22.9136 1.8713971e-5 0 1 22.91359,0 z"
         id="path45"
         inkscape:path-effect="#path-effect45"
         inkscape:original-d="m -171.85191,-350.57291 22.91359,13.22916 -22.91359,13.22917 -22.91359,-13.22917 z"
         transform="translate(-18.610292,-69.715369)" />
      <path
         style="fill:#afafaf;fill-opacity:1;stroke:none;stroke-width:1;stroke-dasharray:none;stroke-opacity:1"
         d="m -475.33965,-188.58337 -0.23464,0.13548 a 3.7407139,3.7407139 90.000012 0 0 -10e-6,6.4791 l 46.06184,26.59382 a 11.222148,11.222148 1.0050172e-6 0 0 11.22214,0 l 0.23465,-0.13548 a 3.7407159,3.7407159 90.000003 0 0 0,-6.47911 l -46.06183,-26.5938 a 11.222152,11.222152 1.3998072e-5 0 0 -11.22215,-1e-5 z"
         id="path46"
         inkscape:path-effect="#path-effect47"
         inkscape:original-d="m -469.72857,-191.82292 -11.4568,6.61458 57.28398,33.07292 11.45679,-6.61458 z"
         sodipodi:nodetypes="ccccc"
         transform="translate(303.60505,-208.35937)" />
      <path
         style="fill:#afafaf;fill-opacity:1;stroke:none;stroke-width:1;stroke-dasharray:none;stroke-opacity:1"
         d="m -234.8077,-386.92045 102.99798,59.46591 a 11.569972,11.569972 1.2122686e-5 0 0 11.56996,0 3.8194896,3.8194896 89.019839 0 0 -0.11316,-6.61458 l -102.99798,-59.46592 a 11.569962,11.569962 180 0 0 -11.56996,0 3.8194936,3.8194936 89.019857 0 0 0.11316,6.61459 z"
         id="path50"
         inkscape:path-effect="#path-effect51"
         inkscape:original-d="m -240.59268,-390.26041 114.56794,66.14583 11.4568,-6.61458 -114.56794,-66.14584 z" />
      <path
         style="fill:#afafaf;fill-opacity:1;stroke:none;stroke-width:1;stroke-dasharray:none;stroke-opacity:1"
         d="m -257.81731,-380.31577 a 3.8192023,3.8192023 89.316783 0 0 0.0789,6.61458 l 45.74829,26.4128 a 11.535682,11.535682 1.3998072e-5 0 0 11.53568,0 3.8192023,3.8192023 89.316783 0 0 -0.0789,-6.61458 l -45.74829,-26.4128 a 11.535682,11.535682 1.3998073e-5 0 0 -11.53568,0 z"
         id="path52"
         inkscape:path-effect="#path-effect53"
         inkscape:original-d="m -252.04947,-383.64583 -11.4568,6.61458 57.28397,33.07292 11.4568,-6.61458 z" />
      <path
         style="fill:#afafaf;fill-opacity:1;stroke:none;stroke-width:1;stroke-dasharray:none;stroke-opacity:1"
         d="m -189.10394,-340.61245 a 3.8197097,3.8197097 88.842301 0 0 0.13367,6.61458 l 68.6071,39.61033 a 11.590451,11.590451 179.99998 0 0 11.59046,0 3.8197135,3.8197135 88.842319 0 0 -0.13367,-6.61459 l -68.6071,-39.61032 a 11.590461,11.590461 7.1786966e-7 0 0 -11.59046,0 z"
         id="path53"
         inkscape:path-effect="#path-effect54"
         inkscape:original-d="m -183.30871,-343.95833 -11.45679,6.61458 80.19756,46.30209 11.45679,-6.61459 z" />
      <path
         style="fill:#f2efea;fill-opacity:1;stroke:none;stroke-width:1;stroke-dasharray:none;stroke-opacity:1"
         d="m -280.55131,-360.46368 a 3.8050519,3.8050519 91.116923 0 1 -0.12822,6.57658 l -0.0239,0.0138 a 11.432905,11.432905 3.2482703e-5 0 1 -11.43292,-10e-6 l -0.0239,-0.0138 a 3.7823922,3.7823922 90.186506 0 1 0.0214,-6.56353 l 0.15533,-0.0883 a 11.43094,11.43094 0.37724329 0 1 11.43218,0.0753 z"
         id="path54"
         inkscape:path-effect="#path-effect55"
         inkscape:original-d="m -286.24567,-363.80208 11.2826,6.61458 -11.4568,6.61459 -11.45677,-6.61459 z" />
      <path
         style="fill:#afafaf;fill-opacity:1;stroke:none;stroke-width:1;stroke-dasharray:none;stroke-opacity:1"
         d="m -269.20042,-347.28539 -0.0685,0.0395 a 3.7960996,3.7960996 90.000009 0 0 0,6.57504 l 11.5253,6.65413 a 11.388299,11.388299 179.99998 0 0 11.3883,0 l 0.0685,-0.0396 a 3.7961035,3.7961035 89.999976 0 0 0,-6.57504 l -11.52529,-6.65412 a 11.388315,11.388315 5.4137707e-6 0 0 -11.3883,0 z"
         id="path55"
         inkscape:path-effect="#path-effect59"
         inkscape:original-d="m -263.50627,-350.57291 -11.4568,6.61458 22.9136,13.22917 11.45679,-6.61459 z" />
      <path
         style="fill:#f2efea;fill-opacity:1;stroke:none;stroke-width:1;stroke-dasharray:none;stroke-opacity:1"
         d="m -234.78196,-327.31812 a 3.8924792,3.8924792 83.961015 0 0 0.69227,6.54374 10.140331,10.140331 179.87185 0 0 10.66652,-0.0239 l 0.0314,-0.0181 a 3.8084755,3.8084755 90 0 0 0,-6.59648 l -0.0314,-0.0181 a 11.167822,11.167822 179.43101 0 0 -11.35879,0.1128 z"
         id="path56"
         inkscape:path-effect="#path-effect60"
         inkscape:original-d="m -229.13588,-330.72916 -10.4568,6.3174 10.4568,6.91176 11.45679,-6.61458 z" />
      <path
         style="fill:#afafaf;fill-opacity:1;stroke:none;stroke-width:1;stroke-dasharray:none;stroke-opacity:1"
         d="m -211.94137,-314.19809 -0.0186,0.0108 a 3.8127146,3.8127146 89.999976 0 0 0,6.60381 l 11.47545,6.62536 a 11.438143,11.438143 179.99999 0 0 11.43814,-1e-5 l 0.0186,-0.0108 a 3.8127131,3.8127131 90.000004 0 0 0,-6.60382 l -11.47545,-6.62535 a 11.43813,11.43813 179.99999 0 0 -11.43814,0 z"
         id="path57"
         inkscape:path-effect="#path-effect61"
         inkscape:original-d="m -206.2223,-317.5 -11.45679,6.61459 22.91359,13.22916 11.45679,-6.61458 z" />
      <path
         style="fill:#f2efea;fill-opacity:1;stroke:none;stroke-width:1;stroke-dasharray:none;stroke-opacity:1"
         d="m -177.60711,-294.33348 a 3.8190583,3.8190583 89.535792 0 0 0.0536,6.61458 11.456845,11.456845 179.84524 0 0 11.4568,-0.0309 3.8190577,3.8190577 89.535727 0 0 -0.0536,-6.61459 11.456825,11.456825 179.84526 0 0 -11.4568,0.031 z"
         id="path58"
         inkscape:path-effect="#path-effect62"
         inkscape:original-d="m -171.85191,-297.65625 -11.4568,6.61459 11.4568,6.61458 11.45679,-6.61458 z" />
      <path
         style="fill:#afafaf;fill-opacity:1;stroke:none;stroke-width:1;stroke-dasharray:none;stroke-opacity:1"
         d="m -143.19213,-281.10952 11.4212,6.59405 a 3.8307916,3.8307916 90.000009 0 1 0,6.63512 11.456808,11.456808 0.10274211 0 1 -11.45679,-0.0205 l -11.42121,-6.59405 a 3.8307891,3.8307891 90.000015 0 1 0,-6.63512 11.456818,11.456818 0.1027366 0 1 11.4568,0.0205 z"
         id="path59"
         inkscape:path-effect="#path-effect63"
         inkscape:original-d="m -148.93832,-284.42708 22.91358,13.22917 -11.45679,6.61458 -22.91359,-13.22917 z" />
      <path
         style="fill:#9cad12;fill-opacity:1;stroke:none;stroke-width:1;stroke-dasharray:none;stroke-opacity:1"
         d="m -327.30046,-340.19965 -4.94656,2.8559 5.42881,3.13434 a 12.055905,12.055905 3.2482703e-5 0 0 12.05592,0 l 0.12872,-0.0743 a 3.5334162,3.5334162 89.999981 0 0 -10e-6,-6.12006 12.668522,12.668522 179.07678 0 0 -12.66688,0.20413 z"
         id="path63"
         inkscape:path-effect="#path-effect64"
         inkscape:original-d="m -320.79025,-343.95833 -11.45677,6.61458 11.45677,6.61459 11.4568,-6.61459 z" />
      <path
         style="fill:#afafaf;fill-opacity:1;stroke:none;stroke-width:1;stroke-dasharray:none;stroke-opacity:1"
         d="m -303.44032,-320.71218 137.15207,79.18478 a 11.556308,11.556308 179.50878 0 0 11.72706,-0.10054 3.9303808,3.9303808 87.675972 0 0 -0.27479,-6.77076 l -137.143,-78.93592 a 11.804436,11.804436 179.96183 0 0 -11.79079,0.008 3.8236652,3.8236652 87.148643 0 0 0.32945,6.61459 z"
         id="path64"
         inkscape:path-effect="#path-effect65"
         inkscape:original-d="m -309.33345,-324.11458 148.93833,85.98958 11.4568,-6.87916 -148.93832,-85.725 z" />
      <path
         style="fill:#afafaf;fill-opacity:1;stroke:none;stroke-width:1;stroke-dasharray:none;stroke-opacity:1"
         d="m -109.03638,-320.88496 -0.28501,0.15534 a 3.7491161,3.7491161 90.462078 0 0 -0.0529,6.55439 l 23.304317,13.19421 a 11.802858,11.802858 179.75864 0 0 11.716528,-0.0494 3.8212683,3.8212683 87.995439 0 0 -0.231513,-6.61458 l -22.682079,-13.09551 a 12.026929,12.026929 0.7034444 0 0 -11.769383,-0.1445 z"
         id="path65"
         inkscape:path-effect="#path-effect66"
         inkscape:original-d="m -103.11115,-324.11458 -12.13547,6.61458 35.049061,19.84375 11.456794,-6.61458 z" />
      <path
         style="fill:#afafaf;fill-opacity:1;stroke:none;stroke-width:1;stroke-dasharray:none;stroke-opacity:1"
         d="m -349.45033,-327.41142 a 3.8189875,3.8189875 89.686528 0 0 0.0362,6.61458 l 103.07497,59.51035 a 11.492994,11.492994 1.1039931e-5 0 0 11.49299,0 3.8189875,3.8189875 89.686528 0 0 -0.0362,-6.61458 l -103.07497,-59.51035 a 11.492994,11.492994 1.1039931e-5 0 0 -11.49299,0 z"
         id="path66"
         inkscape:path-effect="#path-effect68"
         inkscape:original-d="m -343.70383,-330.72916 -11.4568,6.61458 114.56795,66.14583 11.4568,-6.61458 z" />
      <path
         style="fill:#afafaf;fill-opacity:1;stroke:none;stroke-width:1;stroke-dasharray:none;stroke-opacity:1"
         d="m -222.88059,-253.78291 a 3.9344781,3.9344781 86.118711 0 0 0.45437,6.69715 l 33.40785,18.95105 a 11.710421,11.710421 0.29160118 0 0 11.45199,0.0583 3.6931758,3.6931758 90.193365 0 0 0.0217,-6.43367 l -34.15962,-19.61279 a 10.668203,10.668203 178.25761 0 0 -11.17631,0.33998 z"
         id="path67"
         inkscape:path-effect="#path-effect67"
         inkscape:original-d="m -217.39703,-257.3914 -10.73885,7.06676 44.82717,25.42881 11.4568,-6.34576 z" />
      <path
         style="fill:#afafaf;fill-opacity:1;stroke:none;stroke-width:1;stroke-dasharray:none;stroke-opacity:1"
         d="m -372.31249,-314.21194 -0.0666,0.0385 a 3.7967268,3.7967268 90.000006 0 0 0,6.57612 l 22.9802,13.26763 a 11.390183,11.390183 5.5433328e-6 0 0 11.39018,0 l 0.0666,-0.0385 a 3.7967268,3.7967268 90.000006 0 0 0,-6.57612 l -22.9802,-13.26763 a 11.390183,11.390183 5.5433328e-6 0 0 -11.39018,0 z"
         id="path68"
         inkscape:path-effect="#path-effect72"
         inkscape:original-d="m -366.6174,-317.5 -11.45681,6.61459 34.37038,19.84375 11.45681,-6.61459 z" />
      <path
         style="fill:#afafaf;fill-opacity:1;stroke:none;stroke-width:1;stroke-dasharray:none;stroke-opacity:1"
         d="m -326.40153,-287.50109 a 3.8019228,3.8019228 82.318317 0 0 0.86747,6.43144 l 33.40125,19.72683 a 11.362002,11.362002 0.28309348 0 0 11.45895,0.0566 3.8189843,3.8189843 89.695006 0 0 -0.0352,-6.61459 l -34.33518,-19.82341 a 10.987793,10.987793 178.87456 0 0 -11.35728,0.22311 z"
         id="path69"
         inkscape:path-effect="#path-effect71"
         inkscape:original-d="m -320.79025,-291.04166 -10.45675,6.59794 44.82713,26.47497 11.4568,-6.61458 z" />
      <path
         style="fill:#afafaf;fill-opacity:1;stroke:none;stroke-width:1;stroke-dasharray:none;stroke-opacity:1"
         d="m -269.31347,-254.61596 a 3.8200185,3.8200185 88.63513 0 0 0.1576,6.61459 l 57.12637,32.98192 a 11.614397,11.614397 179.99999 0 0 11.6144,0 3.8200185,3.8200185 88.63513 0 0 -0.1576,-6.61459 l -57.12637,-32.98192 a 11.614397,11.614397 179.99999 0 0 -11.6144,0 z"
         id="path70"
         inkscape:path-effect="#path-effect70"
         inkscape:original-d="m -263.50627,-257.96875 -11.4568,6.61459 68.74077,39.6875 11.4568,-6.61459 z" />
      <path
         style="fill:#afafaf;fill-opacity:1;stroke:none;stroke-width:1;stroke-dasharray:none;stroke-opacity:1"
         d="m -395.30742,-300.93582 a 3.8193327,3.8193327 89.168416 0 0 0.096,6.61458 l 45.73118,26.4029 a 11.55282,11.55282 2.2660094e-5 0 0 11.55281,10e-6 3.8193331,3.8193331 89.16849 0 0 -0.096,-6.61459 l -45.73119,-26.4029 a 11.552815,11.552815 9.6670537e-6 0 0 -11.55281,0 z"
         id="path72"
         inkscape:path-effect="#path-effect73"
         inkscape:original-d="m -389.53101,-304.27083 -11.4568,6.61458 57.28398,33.07292 11.45681,-6.61458 z" />
      <path
         style="fill:#afafaf;fill-opacity:1;stroke:none;stroke-width:1;stroke-dasharray:none;stroke-opacity:1"
         d="m -326.61511,-261.22034 a 3.8205525,3.8205525 88.329154 0 0 0.19295,6.61457 l 91.46142,52.80529 a 11.64972,11.64972 2.642106e-6 0 0 11.64972,0 3.8205536,3.8205536 88.329304 0 0 -0.19293,-6.61458 l -91.46144,-52.80529 a 11.649711,11.649711 179.99998 0 0 -11.64972,10e-6 z"
         id="path73"
         inkscape:path-effect="#path-effect74"
         inkscape:original-d="m -320.79025,-264.58333 -11.45677,6.61458 103.11114,59.53125 11.45679,-6.61458 z" />
      <path
         style="fill:#d4a27f;fill-opacity:1;stroke:none;stroke-width:1;stroke-dasharray:none;stroke-opacity:1"
         d="m -458.27178,-264.58333 a 15.275729,15.275729 89.99997 0 0 2e-5,26.45834 45.827161,45.827161 179.99999 0 0 45.82716,-1e-5 15.275726,15.275726 90.000003 0 0 0,-26.45833 l 0,0 a 45.82716,45.82716 179.99999 0 0 -45.82718,0 z"
         id="path75"
         inkscape:path-effect="#path-effect76"
         inkscape:original-d="m -435.35819,-277.8125 -45.82716,26.45834 45.82716,26.45833 45.82718,-26.45833 z" />
      <path
         style="fill:#ffffff;fill-opacity:1;stroke:none;stroke-width:1;stroke-dasharray:none;stroke-opacity:1"
         d="m -400.9878,-231.51042 0,1e-5 a 15.275726,15.275726 90.000005 0 0 0,26.45833 l 0,0 a 45.827173,45.827173 2.7068869e-6 0 0 45.82718,0 l 10e-6,0 a 15.275723,15.275723 89.999995 0 0 0,-26.45833 l -10e-6,-1e-5 a 45.82719,45.82719 180 0 0 -45.82718,0 z"
         id="path76"
         inkscape:path-effect="#path-effect77"
         inkscape:original-d="m -378.07421,-244.73958 -45.82718,26.45833 45.82718,26.45834 45.82719,-26.45834 z" />
      <path
         style="fill:#9cad12;fill-opacity:1;stroke:none;stroke-width:1;stroke-dasharray:none;stroke-opacity:1"
         d="m -315.09407,-175.26785 a 3.8191142,3.8191142 89.441754 0 0 0.0644,6.61459 11.456874,11.456874 179.81392 0 0 11.4568,-0.0372 3.8191119,3.8191119 89.441819 0 0 -0.0644,-6.61459 11.456868,11.456868 179.81393 0 0 -11.45681,0.0372 z"
         id="path79"
         inkscape:path-effect="#path-effect79"
         inkscape:original-d="m -309.33345,-178.59375 -11.4568,6.61459 11.4568,6.61458 11.45681,-6.61458 z"
         transform="translate(-34.370375,-19.843756)" />
      <path
         style="fill:#9cad12;fill-opacity:1;stroke:none;stroke-width:1;stroke-dasharray:none;stroke-opacity:1"
         d="m -326.61958,-181.84277 a 3.8207122,3.8207122 88.251864 0 0 0.20188,6.61458 11.457351,11.457351 179.41716 0 0 11.45678,-0.11655 3.8207107,3.8207107 88.252058 0 0 -0.20186,-6.61458 11.457386,11.457386 179.41715 0 0 -11.4568,0.11655 z"
         id="path80"
         inkscape:path-effect="#path-effect80"
         inkscape:original-d="m -320.79025,-185.20834 -11.45677,6.61458 11.45677,6.61459 11.4568,-6.61459 z" />
      <path
         style="fill:#f2efea;fill-opacity:1;stroke:none;stroke-width:1;stroke-dasharray:none;stroke-opacity:1"
         d="m -303.51497,-168.72387 a 11.457278,11.457278 0.52017342 0 1 11.4568,0.10401 3.8203476,3.8203476 91.560309 0 1 -0.18017,6.61458 11.457248,11.457248 0.52017477 0 1 -11.45678,-0.10401 3.8203438,3.8203438 91.560051 0 1 0.18015,-6.61458 z"
         id="path81"
         inkscape:path-effect="#path-effect81"
         inkscape:original-d="m -309.33345,-165.36458 11.45681,-6.61458 11.45677,6.61458 -11.45677,6.61458 z" />
      <path
         style="fill:#afafaf;fill-opacity:1;stroke:none;stroke-width:1;stroke-dasharray:none;stroke-opacity:1"
         d="m -487.03241,-234.7492 a 3.8213918,3.8213918 87.94518 0 0 0.23732,6.61459 l 11.21946,6.47756 a 11.69413,11.69413 1.0827545e-5 0 0 11.69412,0 3.821389,3.821389 87.945169 0 0 -0.23732,-6.61458 l -11.21946,-6.47757 a 11.694117,11.694117 1.4506222e-6 0 0 -11.69412,0 z"
         id="path82"
         inkscape:path-effect="#path-effect82"
         inkscape:original-d="m -481.18535,-238.125 -11.4568,6.61459 22.91358,13.22916 11.4568,-6.61458 z" />
      <path
         style="fill:#afafaf;fill-opacity:1;stroke:none;stroke-width:1;stroke-dasharray:none;stroke-opacity:1"
         d="m -429.73393,-201.68467 a 3.8208226,3.8208226 88.196554 0 0 0.20827,6.61458 l 11.24854,6.49435 a 11.665065,11.665065 179.99999 0 0 11.66506,-1e-5 3.8208229,3.8208229 88.196413 0 0 -0.20828,-6.61458 l -11.24852,-6.49433 a 11.66507,11.66507 2.020448e-5 0 0 -11.66507,-1e-5 z"
         id="path83"
         inkscape:path-effect="#path-effect83"
         inkscape:original-d="m -423.90139,-205.05208 -11.4568,6.61458 22.9136,13.22917 11.45678,-6.61458 z" />
      <path
         style="fill:#afafaf;fill-opacity:1;stroke:none;stroke-width:1;stroke-dasharray:none;stroke-opacity:1"
         d="m -532.83739,-221.53285 a 3.8205549,3.8205549 88.329359 0 0 0.19292,6.61459 l 34.17746,19.73236 a 11.649719,11.649719 180 0 0 11.64972,0 3.8205584,3.8205584 88.329374 0 0 -0.19292,-6.61458 l -34.17746,-19.73237 a 11.64973,11.64973 1.0102238e-5 0 0 -11.64972,0 z"
         id="path84"
         inkscape:path-effect="#path-effect84"
         inkscape:original-d="m -527.01253,-224.89583 -11.4568,6.61458 45.82718,26.45834 11.4568,-6.61459 z" />
      <path
         style="fill:#afafaf;fill-opacity:1;stroke:none;stroke-width:1;stroke-dasharray:none;stroke-opacity:1"
         d="m -406.7242,-148.8235 a 3.8189393,3.8189393 89.861322 0 0 0.016,6.61458 l 34.35439,19.83451 a 11.472783,11.472783 179.99997 0 0 11.47279,0 3.8189388,3.8189388 89.861249 0 0 -0.016,-6.61458 l -34.35438,-19.83451 a 11.472787,11.472787 179.99999 0 0 -11.47279,0 z"
         id="path85"
         inkscape:path-effect="#path-effect85"
         inkscape:original-d="m -400.98781,-152.13541 -11.45678,6.61458 45.82719,26.45833 11.45677,-6.61458 z" />
    </g>
  </g>
</svg>
