<svg xmlns="http://www.w3.org/2000/svg" viewBox="-67.91211927259292 -67.91215628749262 710.8242385451858 710.8243125749852"> <svg xmlns="http://www.w3.org/2000/svg" xmlns:xlink="http://www.w3.org/1999/xlink" version="1.1" id="Capa_2_1_" x="2.0878807274070823" y="2.0878437125073788" viewBox="2.5250015258789062 2.5250015258789062 994.949951171875 994.949951171875" xml:space="preserve" height="570.8243125749852" width="570.8242385451858" preserveAspectRatio="xMinYMin" enable-background="new 0 0 1000 1000" style="overflow: visible;"><path d="M925.8,746.3c-2.4-2.2-5-4.2-7.5-6.2c-0.1,0-0.1-0.1-0.2-0.1c-7.5-5.7-15.4-10.5-23.8-14.3c-0.2-0.1-0.4-0.2-0.6-0.3    l-0.1,0.1c-39.8-18.3-87.3-14.7-124.3,10.7c0,0,0,0-0.1,0c-0.2,0.1-0.4,0.3-0.6,0.4L734,702c4.2-4.6,7.9-9.4,11.5-14.3    c84.7-110.3,84.7-265.1,0-375.4c-3.6-4.9-7.4-9.7-11.5-14.3l34.7-34.7c21.6,15,46.7,22.6,71.9,22.6c0.1,0,0.1,0,0.2,0    c1.1,0,2.1,0,3.2,0c0.3,0,0.7,0,1,0c1,0,2.1-0.1,3.1-0.1c0.4,0,0.7,0,1.1,0c1-0.1,1.9-0.1,2.9-0.2c0.4,0,0.8-0.1,1.3-0.1    c0.7-0.1,1.4-0.1,2.1-0.2c0.7-0.1,1.4-0.1,2.1-0.2c0.5-0.1,0.9-0.1,1.4-0.2c0.9-0.1,1.8-0.3,2.8-0.4c0.8-0.1,1.6-0.3,2.4-0.4    c0.6-0.1,1.1-0.2,1.7-0.3c1-0.2,1.9-0.4,2.9-0.6c0.4-0.1,0.8-0.2,1.2-0.3c0.8-0.2,1.5-0.4,2.3-0.6c0.6-0.1,1.2-0.3,1.8-0.4    c1.2-0.3,2.3-0.6,3.5-1c0.2-0.1,0.4-0.1,0.6-0.2c0.9-0.3,1.8-0.6,2.7-0.9c0.4-0.1,0.9-0.3,1.4-0.4c1-0.3,1.9-0.7,2.9-1    c0.4-0.1,0.7-0.2,1.1-0.4c0.8-0.3,1.5-0.6,2.3-0.9c1.9-0.7,3.7-1.5,5.5-2.4l0.1,0.1c11.5-5.2,22.3-12.2,32.1-20.9    c1.6-1.6,3.3-3.1,5-4.9c49.6-49.6,49.6-130.1,0-179.6s-130.1-49.6-179.6,0c-1.7,1.7-3.2,3.4-4.9,5c-8.7,9.8-15.7,20.6-20.9,32.1    l0.1,0.1c-18.4,40.1-14.7,87.9,11.2,125L702,266c-4.6-4.2-9.4-7.9-14.3-11.5c-110.3-84.7-265.1-84.7-375.4,0    c-4.9,3.6-9.7,7.4-14.3,11.5l-34.7-34.7c15.1-21.6,22.6-46.8,22.7-72v-0.1c0-4.2-0.2-8.3-0.6-12.5c-1.3-13.8-5-27.5-10.9-40.4    c-5.1-11.6-12.1-22.4-20.8-32.2c-0.8-0.8-1.6-1.6-2.3-2.4c-0.8-0.9-1.7-1.7-2.5-2.6c-3.7-3.7-7.6-7.1-11.6-10.2    C187.4,19.9,115.1,23.3,69.2,69.2c-44.1,44.1-49,112.6-14.7,162.1c0.3,0.4,0.6,0.9,0.9,1.3c0.5,0.8,1.1,1.5,1.7,2.3    c3.6,4.9,7.6,9.5,12.1,13.9c1.3,1.3,2.6,2.5,3.8,3.7c0.4,0.4,0.8,0.8,1.2,1.2c1.8,1.6,3.7,3.2,5.6,4.6c7,5.6,14.4,10.3,22.3,14.2    c1.4,0.7,2.9,1.4,4.3,2c10.3,4.7,21.1,8,32.1,9.8c2.7,0.4,5.5,0.8,8.3,1.1c4.1,0.4,8.3,0.6,12.5,0.6h0.1c25.2,0,50.5-7.6,72-22.7    L266,298c-4.2,4.6-7.9,9.4-11.5,14.3c-84.7,110.3-84.7,265.1,0,375.4c3.6,4.9,7.4,9.7,11.5,14.3l-34.7,34.7    c-24.1-16.8-52.7-24.2-80.8-22.4c-15.1,1-30.1,4.7-44.1,11.2l-0.1-0.1c-2,0.9-3.9,1.9-5.9,2.9c-5.8,3-11.3,6.4-16.6,10.3    c-3.3,2.4-6.5,5-9.6,7.7c-1.6,1.6-3.3,3.1-5,4.9c-15.5,15.5-26.1,34-32,53.7c-0.3,1-0.6,2-0.8,3c-3.4,12.8-4.9,26-4.3,39.1    c0.1,1.3,0.1,2.7,0.3,4c0.5,6.8,1.6,13.7,3.2,20.3c5.3,21.8,16.5,42.5,33.6,59.6c23.3,23.3,53.4,35.7,83.9,37.1    c34.4,1.6,69.4-10.8,95.7-37.1c0.2-0.2,0.4-0.4,0.6-0.7c1.5-1.5,2.8-3,4.2-4.4c8.4-9.5,15.2-19.9,20.4-30.9    c0.2-0.4,0.4-0.8,0.5-1.1l-0.1-0.1c11.1-24.2,14.1-51.2,9.1-77c-0.1-0.5-0.2-1.1-0.3-1.7c-0.4-1.9-0.8-3.8-1.3-5.6    c-3.7-14.3-9.9-28.1-18.7-40.7L298,734c4.6,4.2,9.4,7.9,14.3,11.5c110.3,84.7,265.1,84.7,375.4,0c4.9-3.6,9.7-7.4,14.3-11.5    l34.7,34.7c-0.6,0.8-1.1,1.6-1.7,2.4c-24.3,36.7-27.5,83.3-9.5,122.5l-0.1,0.1c2.6,5.8,5.7,11.3,9.1,16.7    c3.5,5.4,7.4,10.5,11.8,15.4c1.6,1.6,3.1,3.3,4.9,5c49.6,49.6,130.1,49.6,179.6,0s49.6-130.1,0-179.6    C929.1,749.5,927.4,748,925.8,746.3z M782.4,100.3c32.4-32.4,84.9-32.4,117.3,0c32.4,32.4,32.4,84.9,0,117.3    c-32.4,32.4-84.9,32.4-117.3,0C750,185.3,750,132.7,782.4,100.3z M217.4,217.4c-32.4,32.4-84.9,32.4-117.3,0    c-32.4-32.4-32.4-84.9,0-117.3c32.4-32.4,84.9-32.4,117.3,0C249.8,132.5,249.8,185,217.4,217.4z M218.7,901.2    c-32.4,32.4-84.9,32.4-117.3,0c-32.4-32.4-32.4-84.9,0-117.3c32.4-32.4,84.9-32.4,117.3,0C251.1,816.3,251.1,868.8,218.7,901.2z     M669.9,298.1l-96.6,96.6c-43.9-30.6-102.6-30.6-146.5,0l-96.6-96.6C427.9,215.5,572.1,215.5,669.9,298.1z M558.6,558.6    c-32.4,32.4-84.9,32.4-117.3,0c-32.4-32.4-32.4-84.9,0-117.3c32.4-32.4,84.9-32.4,117.3,0C591,473.7,591,526.3,558.6,558.6z     M298.1,669.9c-82.6-97.8-82.6-242,0-339.7l96.6,96.6c-30.6,43.9-30.6,102.6,0,146.5L298.1,669.9z M330.1,701.9l96.6-96.6    c43.9,30.6,102.6,30.6,146.5,0l96.6,96.6C572.1,784.5,427.9,784.5,330.1,701.9z M701.9,669.9l-96.6-96.6    c30.6-43.9,30.6-102.6,0-146.5l96.6-96.6C784.5,427.9,784.5,572.1,701.9,669.9z M899.7,899.7c-32.4,32.4-84.9,32.4-117.3,0    c-32.4-32.4-32.4-84.9,0-117.3c32.4-32.4,84.9-32.4,117.3,0C932,814.7,932,867.3,899.7,899.7z" style="fill: #FFFFFF; fill-opacity: 1;"></path><path d="M955.4,700.8c56.1-127.5,56.1-274.1,0-401.6c-12.2,9.8-25.2,17.9-39,24.1c47.8,112.6,47.8,240.8,0,353.4    C930.3,682.9,943.3,691,955.4,700.8z" style="fill: #FFFFFF; fill-opacity: 1;"></path><path d="M676.7,83.6c6.2-13.9,14.3-26.9,24.1-39c-127.5-56.1-274.1-56.1-401.6,0c9.8,12.2,17.9,25.2,24.1,39    C435.9,35.8,564.1,35.8,676.7,83.6z" style="fill: #FFFFFF; fill-opacity: 1;"></path><path d="M44.6,299.2c-56.1,127.5-56.1,274.1,0,401.6c12.2-9.8,25.2-17.9,39-24.1c-47.8-112.6-47.8-240.8,0-353.4    C69.7,317.1,56.7,309,44.6,299.2z" style="fill: #FFFFFF; fill-opacity: 1;"></path><path d="M323.3,916.4c-6.2,13.9-14.3,26.9-24.1,39c127.5,56.1,274.1,56.1,401.6,0c-9.8-12.2-17.9-25.2-24.1-39    C564.1,964.2,435.9,964.2,323.3,916.4z" style="fill: #FFFFFF; fill-opacity: 1;"></path></svg></svg>